<svg width="56" height="56" viewBox="0 0 56 56" fill="none" xmlns="http://www.w3.org/2000/svg">
<path d="M38.4519 17.4714L28.1105 25.0538L17.5327 17.4714V17.4734L17.5455 17.4837V28.1011L27.9912 35.8475L38.4519 28.4003V17.4714Z" fill="#EA4335"/>
<path d="M41.168 15.627L38.4521 17.4714V28.4003L46.9979 22.236V18.5227C46.9979 18.5227 45.9606 13.2191 41.168 15.627Z" fill="#FBBC05"/>
<path d="M38.4521 28.4003V42.5753H45.002C45.002 42.5753 46.8658 42.395 47 40.399V22.236L38.4521 28.4003Z" fill="#34A853"/>
<path d="M17.5452 42.5876V28.1011L17.5327 28.0909L17.5452 42.5876Z" fill="#C5221F"/>
<path d="M17.533 17.4735L14.8321 15.6393C10.0395 13.2314 9 18.533 9 18.533V22.2463L17.533 28.0909V17.4735Z" fill="#C5221F"/>
<path d="M17.5327 17.4734V28.0909L17.5452 28.1011V17.4837L17.5327 17.4734Z" fill="#C5221F"/>
<path d="M9 22.2483V40.4113C9.13206 42.4094 10.998 42.5876 10.998 42.5876H17.5479L17.533 28.0909L9 22.2483Z" fill="#4285F4"/>
</svg>
