<svg xmlns="http://www.w3.org/2000/svg" viewBox="0 0 56 56"><defs><style>.cls-1{fill:#fefefe;}.cls-2{fill:#fbfbfb;}.cls-3{fill:#fbf0f0;}.cls-4{fill:#b24246;}.cls-5{fill:#1d1418;}.cls-6{fill:#170709;}.cls-7{fill:#9a4b50;}.cls-8{fill:#f8d0cb;}.cls-9{fill:#f0bfba;}.cls-10{fill:#111223;}.cls-11{fill:#100c0e;}.cls-12{fill:#1b1d2f;}.cls-13{fill:#120f19;}.cls-14{fill:#d2c6c7;}.cls-15{fill:#302935;}.cls-16{fill:#cc3b3e;}.cls-17{fill:#e2e1e2;}.cls-18{fill:#cd3b3d;}.cls-19{fill:#b43236;}.cls-20{fill:#10246c;}.cls-21{fill:#092167;}.cls-22{fill:#092269;}.cls-23{fill:#090613;}.cls-24{fill:#0b1f60;}.cls-25{fill:#0d1c4f;}.cls-26{fill:#122367;}.cls-27{fill:#fde8e2;}.cls-28{fill:#fbdad5;}.cls-29{fill:#f3c8c3;}.cls-30{fill:#a4734c;}</style></defs><g id="レイヤー_2" data-name="レイヤー 2"><g id="レイヤー_1-2" data-name="レイヤー 1"><path class="cls-1" d="M14.058,56H0V0H56V56H41.3c-.081-.408-.173-.815-.242-1.226-.094-.57-.167-1.143-.256-1.714-.051-.324-.131-.643-.174-.967-.076-.58-.1-1.17-.208-1.743-.138-.726-.335-1.44-.517-2.156a3.215,3.215,0,0,0-.234-.691,11.528,11.528,0,0,0-.741-1.286c-.352-.506-.748-.982-1.14-1.459a.21.21,0,0,1,.013-.331,2.464,2.464,0,0,0,.192-.276l.07-.2c.024-.156.058-.311.072-.468a2.619,2.619,0,0,0-.417-1.5c-.6-1.084-1.261-2.137-1.892-3.2a.611.611,0,0,0-.437-.3c-.514-.1-1.027-.211-1.541-.317l-.022-.039.053-.055c.327-.236.651-.478.984-.706a8.755,8.755,0,0,0,.878-.571c.776-.681,1.523-1.4,2.289-2.089.458-.415.91-.844,1.4-1.213a3.594,3.594,0,0,0,1.141-1.1c.1-.193.249-.366.364-.554a5.458,5.458,0,0,0,1.029-1.845c.073-.417.207-.824.314-1.235.087-.335.179-.67.262-1.006.131-.531.256-1.063.384-1.595a.177.177,0,0,0,0-.023c.08-.338.16-.677.241-1.023a4.531,4.531,0,0,0,1.691,0,.519.519,0,0,0,.444-.432l-.022-.2a1.6,1.6,0,0,0-.12-.179c-.185-.207-.375-.41-.563-.614l-.051-.129-.041-.145c-.061-.314-.124-.627-.182-.941a4.676,4.676,0,0,1-.1-.628c-.041-.839-.064-1.68-.1-2.52a3.422,3.422,0,0,0-.1-.514c-.022-.1-.058-.2-.077-.309-.087-.478-.15-.962-.263-1.434a9.559,9.559,0,0,0-.378-1.151,7.993,7.993,0,0,0-.86-2.136c-.123-.163-.2-.358-.309-.533a8.986,8.986,0,0,0-.837-1.308c-.914-1.022-1.876-2-2.828-2.991A3.593,3.593,0,0,0,37.4,8.084c-.59-.269-1.162-.574-1.742-.862a5.083,5.083,0,0,0-1.46-.578c-.436-.067-.865-.178-1.3-.256a11.77,11.77,0,0,0-1.351-.21,11.14,11.14,0,0,0-1.353.042,3.147,3.147,0,0,0-.766.1,9.886,9.886,0,0,0-1.272.5.857.857,0,0,1-.749.026,5.079,5.079,0,0,0-1.221-.37c-.713-.082-1.435-.068-2.153-.111a5.682,5.682,0,0,0-1.356.179,5.832,5.832,0,0,0-2.093.606c-.136.082-.289.135-.431.209a9.848,9.848,0,0,0-1.884,1.031c-.27.226-.558.43-.832.651a16.954,16.954,0,0,0-1.347,1.109c-.807.8-1.576,1.632-2.357,2.455a3.892,3.892,0,0,0-1.129,2,3.216,3.216,0,0,0-.119,1.29,2.178,2.178,0,0,1,.055.385c.012.3.038.585.426.63.013,0,.024.018,0,0-.053.392-.1.76-.152,1.128-.038.295-.054.593-.112.883a4.257,4.257,0,0,0-.014,1.575,4,4,0,0,1,.045,2.048l-.077.231-.014.092-.086.276-.008.138c.015.246-.172.488-.012.735l.019.09.241.3h0l.105.079h0l.1.08.188.038.23.076.092.021.136.047.276.04a.926.926,0,0,1,.563.613l.007.093a1.159,1.159,0,0,1,.048.329c-.029.217-.091.429-.139.643l-.009.461a3.605,3.605,0,0,0,.187,1.75l.026.1a.022.022,0,0,0,.01.033v.005l.135.277.068.086a3.348,3.348,0,0,0,.242.426c.231.3.5.571.713.883.306.45.574.926.858,1.39,0,.015,0,.023.017.025l.276.461.053.089.269.648.046.092.642,1.193,0,0,.179.274,0,0,.32.5,0,0a.845.845,0,0,0,.061.12A8.623,8.623,0,0,0,20.768,37.4l.009-.016-.007.017,1.012.645.008-.016-.006.017.335.217.051.05-.043.034c-.673.126-1.347.243-2.016.383a1.014,1.014,0,0,0-.435.219,8.382,8.382,0,0,0-2,2.676,5.191,5.191,0,0,0-.8,2.934l.089.475.118.241c-.359.554-.726,1.1-1.076,1.664a5.115,5.115,0,0,0-.733,1.735c-.107.544-.263,1.079-.377,1.622-.111.526-.212,1.056-.286,1.588-.095.678-.149,1.362-.24,2.041S14.163,55.309,14.058,56Z"/><path class="cls-2" d="M30.005,56h-.138a1.479,1.479,0,0,1-.189-.732c0-.012-.017-.026-.029-.035-.225-.16-.163-.411-.21-.631s.05-.274.247-.275c0-.135,0-.261,0-.387q-.039-3-.077-6c-.009-.721-.012-1.442-.016-2.163,0-.228.051-.475-.217-.594l-.057.632-.667.064a.041.041,0,0,0-.029.027V45.9h-.358l.156-.136-1.571.122-.081-.255a.15.15,0,0,0,.037,0,.427.427,0,0,0,.418.025,10.861,10.861,0,0,0,2.054-1.246.6.6,0,0,1,.169-.074l-.235.351a.83.83,0,0,1,.788-.3l.126.058.016-.05-.121-.034a2.014,2.014,0,0,0-.285-.054,2.168,2.168,0,0,0-.288.025c.01-.026.012-.061.03-.075.283-.221.569-.438.854-.656l.13-.1.1-.085.131-.1.144-.133.274-.229.046-.048.178-.15.462-.406.281-.228h0a.954.954,0,0,0,.215-.105q1.2-1.036,2.4-2.08c.247-.216.489-.438.716-.675.166-.175.175-.167.317.032a4.031,4.031,0,0,0,.462.472c.135.227.272.452.4.68q.417.72.831,1.441l-.163.349.3-.024.068.052c-.033.014-.094.03-.093.04.033.3.072.607.111.914l-.09.194-.231.092-.091.048,0,0-.1.084-.545.149-.1.08-.176.013-.1.081a1.127,1.127,0,0,0-.2.025c-.548.178-1.088.378-1.641.536-.953.272-1.911.525-2.871.772-.39.1-.79.16-1.185.239v-.522a.756.756,0,0,0-.261.573c.033.926.052,1.853.064,2.78.024,1.948.04,3.9.059,5.844V54.4c.239.109.3.3.171.622-.027.067-.2.074-.345.121l-.07.226.227-.1A.8.8,0,0,1,30.005,56Z"/><path class="cls-3" d="M40.7,56h-.553c-.105-.623-.22-1.245-.313-1.87-.085-.565-.141-1.134-.222-1.7-.089-.625-.182-1.25-.294-1.872-.072-.4-.181-.8-.274-1.2l-.017-.077-.134-.667c-.076-.174-.142-.354-.232-.522-.186-.347-.129-.544.247-.748a2.858,2.858,0,0,1,.448.967c.193.844.452,1.675.6,2.526.221,1.291.367,2.595.549,3.892C40.56,55.157,40.632,55.578,40.7,56Z"/><path class="cls-4" d="M40.7,56c-.066-.422-.138-.843-.2-1.267-.182-1.3-.328-2.6-.549-3.892-.145-.851-.4-1.682-.6-2.526a2.858,2.858,0,0,0-.448-.967c-.376.2-.433.4-.247.748.09.168.156.348.232.522l-.035.056c-.026-.013-.064-.02-.075-.041-.116-.232-.227-.466-.34-.7-.005-.159.041-.355-.231-.323l-.175-.56.319.455c.271-.211.386-.458.272-.643a7.826,7.826,0,0,0-.652-.97,7.156,7.156,0,0,0-1.344-1.4.451.451,0,0,1,.565.057c.373.389.752.774,1.1,1.187a10.141,10.141,0,0,1,.61.9c0,.076-.006.152-.007.227,0,.1,0,.207,0,.253a.961.961,0,0,1,.2,0,.654.654,0,0,1,.134.069h0l-.075.094h.12a2.751,2.751,0,0,1,.272.513c.176.607.358,1.216.477,1.836.187.972.329,1.952.482,2.93.111.715.2,1.433.312,2.149.064.429.137.856.206,1.284Z"/><path class="cls-5" d="M38.9,46.642a10.141,10.141,0,0,0-.61-.9c-.344-.413-.723-.8-1.1-1.187a.451.451,0,0,0-.565-.057l-.815.083-.785.224-.165-.167a1,1,0,0,1,.141-.066,12.536,12.536,0,0,1,2.506-.442,1.189,1.189,0,0,1,.153.02c.108.005.217,0,.325.005a2.464,2.464,0,0,1-.192.276.21.21,0,0,0-.013.331c.392.477.788.953,1.14,1.459a11.528,11.528,0,0,1,.741,1.286,3.215,3.215,0,0,1,.234.691c.182.716.379,1.43.517,2.156.109.573.132,1.163.208,1.743.043.324.123.643.174.967.089.571.162,1.144.256,1.714.069.411.161.818.242,1.226h-.276c-.069-.428-.142-.855-.206-1.284-.107-.716-.2-1.434-.312-2.149-.153-.978-.3-1.958-.482-2.93-.119-.62-.3-1.229-.477-1.836a2.751,2.751,0,0,0-.272-.513l-.045-.094h0Z"/><path class="cls-5" d="M14.058,56c.105-.691.22-1.381.312-2.074s.145-1.363.24-2.041c.074-.532.175-1.062.286-1.588.114-.543.27-1.078.377-1.622a5.115,5.115,0,0,1,.733-1.735c.35-.56.717-1.11,1.076-1.664l-.118-.241.985,0-.075.225-.114.021a.336.336,0,0,0-.389.111c-.31.424-.662.822-.931,1.27a7.623,7.623,0,0,0-.951,2.016,37.73,37.73,0,0,0-.821,4.607c-.116.907-.253,1.812-.38,2.717Z"/><path class="cls-6" d="M29.319,45.819l.057-.632c.268.119.216.366.217.594,0,.721.007,1.442.016,2.163q.036,3,.077,6c0,.126,0,.252,0,.387-.2,0-.292.065-.247.275s-.015.471.21.631c.012.009.028.023.029.035a1.479,1.479,0,0,0,.189.732H29.59l-.123-.147,0,0a.954.954,0,0,0-.233-.751l-.012-.075-.058-.318a1.311,1.311,0,0,1,.112-.453.736.736,0,0,0,.144-.464q-.03-2.794-.054-5.589c0-.7,0-1.4,0-2.1A2.242,2.242,0,0,0,29.319,45.819Z"/><path class="cls-6" d="M30.005,56a.8.8,0,0,0,.164-.734l-.227.1.07-.226c.145-.047.318-.054.345-.121.133-.327.068-.513-.171-.622v-.182c-.019-1.948-.035-3.9-.059-5.844-.012-.927-.031-1.854-.064-2.78a.756.756,0,0,1,.261-.573v.522l0,.09c.014.749.033,1.5.043,2.248q.029,2.378.05,4.756c0,.46,0,.92.012,1.379a.65.65,0,0,0,.1.315,1.009,1.009,0,0,1,.01.917,1.47,1.47,0,0,0-.117.32c-.05.145-.1.291-.146.436Z"/><path class="cls-3" d="M14.841,56h-.23c-.157-.392.09-.744.116-1.118.022-.313.106-.62.154-.931.011-.071-.03-.151-.02-.223.065-.48.145-.958.206-1.439.051-.4.066-.8.129-1.192.071-.446.184-.884.266-1.328.039-.209.047-.424.069-.636l.018-.09a.7.7,0,0,0,.12-.167c.053-.157.081-.323.136-.479a.769.769,0,0,1,.139-.184,1.545,1.545,0,0,1,.233.207c.036.046.025.129.035.2a1.283,1.283,0,0,0-.134.26c-.179.7-.382,1.4-.514,2.107-.165.882-.272,1.775-.4,2.665-.067.475-.114.952-.178,1.427C14.947,55.385,14.891,55.692,14.841,56Z"/><path class="cls-7" d="M15.549,49.043l-.018.09c-.021.056-.048.111-.064.168a23.771,23.771,0,0,0-.636,3.565c-.12,1.048-.3,2.09-.451,3.134h-.092c.127-.905.264-1.81.38-2.717a37.73,37.73,0,0,1,.821-4.607,7.623,7.623,0,0,1,.951-2.016c.269-.448.621-.846.931-1.27a.336.336,0,0,1,.389-.111c-.172.212-.33.438-.519.633a5.74,5.74,0,0,0-.94,1.424.624.624,0,0,0-.059.287c.006.233.156.4.329.391l.022.063-.248.315.01-.111-.095-.159.006,0-.047-.051-.192-.212A1.894,1.894,0,0,0,15.549,49.043Z"/><path class="cls-4" d="M30.281,56c.049-.145.1-.291.146-.436a1.47,1.47,0,0,1,.117-.32,1.009,1.009,0,0,0-.01-.917.65.65,0,0,1-.1-.315c-.013-.459-.007-.919-.012-1.379q-.023-2.379-.05-4.756c-.01-.749-.029-1.5-.043-2.248.076-.008.151-.015.227-.026l1.155-.161c-.019.03-.035.081-.059.086-.2.039-.4.071-.6.1-.221.033-.442.06-.679.092,0,.122,0,.205,0,.287.029.768.077,1.535.088,2.3.025,1.832.031,3.664.054,5.5a1.118,1.118,0,0,0,.114.48,1.11,1.11,0,0,1,.034.909c-.081.237-.144.481-.225.757h.726l8.656,0,.16,0L39.96,56Z"/><path class="cls-4" d="M29.467,55.853,29.59,56H14.933c.126-.887.248-1.774.379-2.66.041-.276.105-.547.159-.82-.025.279-.045.558-.077.837-.056.506-.115,1.012-.182,1.516-.041.317-.09.633-.152.946-.022.111,0,.141.1.134H18.9l.944,0q4.677,0,9.353,0A.906.906,0,0,0,29.467,55.853Z"/><path class="cls-8" d="M14.38,56c.153-1.044.331-2.086.451-3.134a23.771,23.771,0,0,1,.636-3.565c.016-.057.043-.112.064-.168-.022.212-.03.427-.069.636-.082.444-.2.882-.266,1.328-.063.394-.078.8-.129,1.192-.061.481-.141.959-.206,1.439-.01.072.031.152.02.223-.048.311-.132.618-.154.931-.026.374-.273.726-.116,1.118Z"/><path class="cls-9" d="M39.96,56l.022-.051q-.073-.454-.146-.911l-.055-.079a.851.851,0,0,0,.018-.2c-.067-.528-.141-1.056-.21-1.584-.086-.664-.163-1.329-.256-1.993a3.891,3.891,0,0,0-.144-.508L39.013,49.5l.029-.14c.093.4.2.794.274,1.2.112.622.2,1.247.294,1.872.081.566.137,1.135.222,1.7.093.625.208,1.247.313,1.87Z"/><path class="cls-8" d="M15.471,52.519c-.054.274-.118.545-.159.821-.131.886-.253,1.773-.379,2.66h-.092c.05-.308.106-.615.148-.925.064-.475.111-.952.178-1.427.125-.89.232-1.783.4-2.665.132-.709.335-1.406.514-2.107a1.238,1.238,0,0,1,.135-.26l.018.015,0,.086,0,.008-.2.683L16,49.55l-.028.136-.013.1-.036.134-.018.093-.2.877-.022.093L15.6,51.3l.017.159-.05.167-.034.221-.034.415Z"/><path class="cls-10" d="M13.508,24.693l-.092-.021-.23-.076L13,24.558l-.1-.08h0L12.8,24.4h0l-.241-.3-.019-.09c.016-.188.036-.376.046-.564a.7.7,0,0,0-.034-.171l.008-.138c.159-.051.133-.16.086-.276l.014-.092.077-.231a4,4,0,0,0-.045-2.048,4.257,4.257,0,0,1,.014-1.575c.058-.29.074-.588.112-.883.048-.368.1-.736.152-1.128.024.019.013,0,0,0-.388-.045-.414-.329-.426-.63a2.178,2.178,0,0,0-.055-.385A3.216,3.216,0,0,1,12.6,14.6a3.892,3.892,0,0,1,1.129-2c.781-.823,1.55-1.658,2.357-2.455a16.954,16.954,0,0,1,1.347-1.109c.274-.221.562-.425.832-.651a9.848,9.848,0,0,1,1.884-1.031c.142-.074.295-.127.431-.209a5.832,5.832,0,0,1,2.093-.606,5.682,5.682,0,0,1,1.356-.179c.718.043,1.44.029,2.153.111a5.079,5.079,0,0,1,1.221.37.857.857,0,0,0,.749-.026,9.886,9.886,0,0,1,1.272-.5,3.147,3.147,0,0,1,.766-.1,11.14,11.14,0,0,1,1.353-.042,11.77,11.77,0,0,1,1.351.21c.435.078.864.189,1.3.256a5.083,5.083,0,0,1,1.46.578c.58.288,1.152.593,1.742.862a3.593,3.593,0,0,1,1.065.856c.952.988,1.914,1.969,2.828,2.991a8.986,8.986,0,0,1,.837,1.308c.108.175.186.37.309.533a7.993,7.993,0,0,1,.86,2.136,9.559,9.559,0,0,1,.378,1.151c.113.472.176.956.263,1.434.019.1.055.205.077.309a3.422,3.422,0,0,1,.1.514c.04.84.063,1.681.1,2.52a4.676,4.676,0,0,0,.1.628c.058.314.121.627.182.941l.041.145.051.128c.009.056,0,.132.03.165.212.215.434.42.653.629l.022.2-.17.149c-.024-.125.042-.289-.149-.342l-.324-.322-.41-.787c0-.015,0-.029,0-.044-.022-.181-.043-.362-.065-.543-.07-.549-.158-1.1-.206-1.647-.052-.606-.066-1.216-.1-1.823,0-.048-.054-.093-.083-.139v-.087l0-.14,0-.093-.216-1.186c-.039-.209-.062-.423-.121-.626-.069-.24-.175-.468-.254-.705-.2-.59-.378-1.187-.591-1.771a3.257,3.257,0,0,0-.333-.554,5.737,5.737,0,0,0-.282-.566c-.273-.431-.549-.861-.852-1.271-.225-.3-.491-.58-.744-.864-.275-.309-.552-.617-.835-.917-.208-.22-.426-.43-.643-.641-.164-.159-.346-.3-.5-.471a4,4,0,0,0-.971-.851c-.15-.084-.3-.159-.457-.239-.339-.178-.674-.361-1.017-.532a8.426,8.426,0,0,1-.81-.379,4.576,4.576,0,0,0-1.434-.448c-.394-.1-.8-.136-1.206-.2-.014,0-.027-.013-.042-.017a2.72,2.72,0,0,0-.649-.15c-.772.01-1.543.055-2.315.089a.383.383,0,0,0-.128.041c-.344.15-.685.309-1.033.45-.261.106-.514.269-.824.145-.362-.146-.731-.276-1.1-.412a.467.467,0,0,0-.129-.039c-.508-.033-1.016-.071-1.524-.091a9.58,9.58,0,0,0-1.174,0c-.4.034-.787.126-1.179.2-.271.05-.541.109-.811.166a.9.9,0,0,0-.216.056q-.753.366-1.5.741c-.2.1-.394.2-.591.3a4.852,4.852,0,0,0-.556.286c-.391.268-.769.554-1.148.839-.2.15-.395.308-.583.473-.3.258-.584.527-.879.789-.217.193-.452.368-.654.575-.333.341-.646.7-.967,1.053l-.044.046v0c-.124.131-.256.254-.368.394a9.11,9.11,0,0,0-1,1.315,3.819,3.819,0,0,0-.379,2.088,2.642,2.642,0,0,1,.077.378.311.311,0,0,0,.33.386h0l.2.262c.124-.346.243-.679.363-1.011.1-.288.212-.575.318-.863l0-.086.186-.326.043-.092.045-.048h0l.086-.185.052-.092.318-.554.008-.088a.464.464,0,0,0,.126-.085c.19-.263.374-.53.561-.795.148-.186.292-.376.448-.556a.942.942,0,0,1,.2-.136h0c-.034.058-.07.114-.1.173q-.162.3-.322.608a.121.121,0,0,0-.038,0l-.142.185-.272.284-.459,1.009,0,0c-.018.013-.046.022-.055.039-.172.366-.35.729-.509,1.1a5.309,5.309,0,0,0-.175.562h0a4.235,4.235,0,0,0-.458,1.462c-.047.292-.089.584-.13.877-.066.48-.128.961-.193,1.441l.041.179a.846.846,0,0,0-.083.231c-.035.631-.061,1.263-.09,1.895l-.007.184-.139.37a2.537,2.537,0,0,0-.234,1.146.54.54,0,0,0,.331.488,3.158,3.158,0,0,0,1.7.3.724.724,0,0,1-.2.089c-.211.023-.423.03-.634.043a.059.059,0,0,0,.007.037l-.276-.04Zm-.215-7.468-.079-.013a1.539,1.539,0,0,0-.055,1.158Z"/><path class="cls-11" d="M31.8,42.355l-.462.406-.178.15-.046.048-.274.229-.144.133-.131.1-.1.085-.13.1c-.285.218-.571.435-.854.656-.018.014-.02.049-.03.075h0a.6.6,0,0,0-.169.074,10.861,10.861,0,0,1-2.054,1.246.427.427,0,0,1-.418-.025l.994-.541H25.754a2.345,2.345,0,0,0,1.016.544l.081.255,1.571-.122-.156.136h.358a.272.272,0,0,1-.076.045c-.463.079-.925.171-1.391.226-.159.018-.379.066-.462-.177-.058-.067-.1-.173-.176-.2a3.651,3.651,0,0,1-1.113-.655l-1.018-.764-.16-.156-.01-.01-.157-.11h0c-.126-.118-.255-.233-.379-.353q-1.052-1.024-2.1-2.052a8.963,8.963,0,0,1-.8-.822c-.3-.383-.547-.8-.828-1.225l.141-.115a16.551,16.551,0,0,0,.98,1.448,15.749,15.749,0,0,0,1.3,1.291.476.476,0,0,0,.271.069,1.3,1.3,0,0,0,.217-.037c.4-.044.8-.084,1.193-.126h.309V39.5c-.041-.05-.073-.123-.126-.147-.212-.094-.431-.172-.648-.257l-.176-.082-.927-.493a1.021,1.021,0,0,0-.213-.01c-.216.034-.43.076-.644.121-.47.1-.939.2-1.408.3l-.088.013c-.07.017-.16.012-.207.054-.223.206-.439.421-.65.64a8.672,8.672,0,0,0-1.6,2.527,6.616,6.616,0,0,0-.643,1.679c-.071.233-.113.474-.169.711a5.191,5.191,0,0,1,.8-2.934,8.382,8.382,0,0,1,2-2.676,1.014,1.014,0,0,1,.435-.219c.669-.14,1.343-.257,2.016-.383l.043-.034-.051-.05.01-.1.272,0,.092.054.052.035,0,0,.155.09c.4.2.8.435,1.212.606a4.775,4.775,0,0,0,1.892.511c.017.013.034.034.053.036a7.462,7.462,0,0,0,1.82.092c.5-.065.98-.205,1.47-.311l.017,0,.014-.01.052-.042.091-.02.04-.027,1.478-.493.092.033-.147.3c.113.024.226.049.339.071l.36.069-.507.032H30.29v.269l.024.512c0,.115-.01.231,0,.345.033.36.074.719.112,1.078l0,.231.037.406h.46l.275.023.224.011c.167.008.389.088.491.01.444-.339.853-.724,1.275-1.092l.094-.1.29-.244.01-.011,1.187-1.121c.287-.1.1-.326.121-.509.279.3.285.335.031.566-.591.539-1.186,1.073-1.78,1.608l-1.065.956h0Zm-8.107,1.191.271.2c.431.343.856.693,1.3,1.025a.843.843,0,0,0,.425.193,12.817,12.817,0,0,0,1.592.013,2.195,2.195,0,0,0,1.17-.214c.749-.525,1.482-1.074,2.221-1.613l.4-.329a3.013,3.013,0,0,1-.469-.047c-.147-.04-.306-.089-.322-.291q-.112-1.489-.229-2.978c-.007-.086-.013-.173-.021-.28l-.349.13c-.614.127-1.223.289-1.843.372a8.612,8.612,0,0,1-2.8-.1l-.323-.1c-.032.028-.09.056-.091.085,0,.5,0,1,0,1.505l-.011.092c-.014.032-.04.063-.04.095,0,.506,0,1.013,0,1.519l-.018.133a3.257,3.257,0,0,0-1.289.236Zm.652-1.012-.014-.11-1.637.14a.427.427,0,0,0,.63.22,1.769,1.769,0,0,1,.333-.066C23.885,42.66,24.114,42.6,24.343,42.534Zm6.164-.276-.011.068c.048.01.1.021.144.029.215.032.43.072.647.089a1.358,1.358,0,0,0,.317-.05l-.016-.077Zm.718.452.02-.1-.643-.139-.021.1Z"/><path class="cls-12" d="M44.983,24.475c.191.053.125.217.149.342l-.274.283a4.531,4.531,0,0,1-1.691,0c-.081.346-.161.685-.241,1.023a.177.177,0,0,1,0,.023c-.128.532-.253,1.064-.384,1.595-.083.336-.175.671-.262,1.006-.107.411-.241.818-.314,1.235a5.458,5.458,0,0,1-1.029,1.845c-.115.188-.259.361-.364.554a3.594,3.594,0,0,1-1.141,1.1c-.494.369-.946.8-1.4,1.213-.766.693-1.513,1.408-2.289,2.089a8.755,8.755,0,0,1-.878.571c-.333.228-.657.47-.984.706l-.094-.182c.147-.11.293-.223.443-.331.321-.229.65-.449.965-.686.269-.2.528-.419.781-.642a1.106,1.106,0,0,0,.167-.265.974.974,0,0,0,.26-.115q.467-.4.916-.82c.271-.251.53-.515.8-.765.159-.147.335-.276.5-.418.144-.125.271-.271.423-.385.255-.191.523-.365.786-.546l.045-.046h0l.368-.414h0l.277-.367.048-.183.276-.369h0l.183-.278h0l.091-.093,0-.043a1.705,1.705,0,0,0,.551-.877l.043-.092.322-1.341c.023-.12.039-.242.071-.358.158-.564.34-1.122.474-1.691.1-.435.141-.885.222-1.325.033-.184.07-.409.3-.44.388-.054.783-.063,1.173-.1.179-.017.355-.059.532-.09h.138l.047-.046Z"/><path class="cls-13" d="M33.782,37.881l.094.182-.053.055.022.039c.514.106,1.027.214,1.541.317a.611.611,0,0,1,.437.3c.631,1.068,1.289,2.121,1.892,3.2a2.619,2.619,0,0,1,.417,1.5c-.014.157-.048.312-.072.468l-.056-.3-.024-.275a1.78,1.78,0,0,0-.048-.264c-.094-.281-.2-.559-.3-.838l-.068-.052-.141-.325q-.416-.72-.831-1.441c-.132-.228-.269-.453-.4-.68-.064-.111-.12-.228-.193-.333-.252-.367-.4-.852-.983-.842a1.239,1.239,0,0,1-.22-.043c-.55-.1-1.1-.2-1.651-.278-.067-.01-.149.078-.224.12a.654.654,0,0,1-.6.518,1.4,1.4,0,0,0-.171.061c-.224.061-.45.119-.674.179l-.36-.069c-.113-.022-.226-.047-.339-.071l.147-.3.045-.086a.039.039,0,0,1,.035-.011c.187.013.367.013.425-.22l.019-.01h.022c.2.106.339-.043.492-.123a.481.481,0,0,0-.031-.107c.085-.049.168-.1.254-.148a8.631,8.631,0,0,0,.933-.52c.676-.491,1.349-.991,1.987-1.53a7.109,7.109,0,0,0,1.674-1.855l.286-.365h.079l.1.139a.2.2,0,0,1-.008.041l-.174.194a7.432,7.432,0,0,1-.638.909c-.473.5-.985.97-1.488,1.446a4.841,4.841,0,0,1-.479.389c-.381.28-.771.546-1.148.831-.063.048-.075.165-.111.25a.846.846,0,0,0,.22.076.779.779,0,0,0,.221-.049l.14-.084Zm-.965.144a1.054,1.054,0,0,0-.242.055c-.442.222-.881.45-1.319.68-.094.05-.181.116-.271.174l.021.058a1.733,1.733,0,0,0,.331-.025c.278-.074.55-.175.83-.246.454-.117.572-.235.649-.7l.011-.019Z"/><path class="cls-5" d="M22.4,38.162l-.272,0-.345-.118.006-.017-.008.016c-.024-.044-.036-.1-.072-.13q-.4-.267-.811-.519c-.031-.019-.086,0-.129,0l.007-.017-.009.016a1.485,1.485,0,0,0-.205-.251,6.943,6.943,0,0,1-.617-.458c-.432-.432-.837-.892-1.258-1.336a2.011,2.011,0,0,0-.246-.19l0,0a.633.633,0,0,0-.32-.5l0,0c0-.132-.027-.243-.179-.274l0,0a1.067,1.067,0,0,0-.066-.212c-.127-.239-.261-.475-.4-.71-.054-.094-.119-.181-.179-.271l-.046-.092c-.061-.21-.12-.42-.186-.628,0-.014-.054-.014-.083-.02l-.053-.089a.488.488,0,0,0-.276-.461c-.015,0-.02-.01-.017-.025l-.073-.3a.438.438,0,0,0,.129-.3,1.522,1.522,0,0,0-.118-.524c-.067-.137-.069-.39-.343-.329-.063-.124-.124-.125-.186,0-.082-.028-.188-.033-.242-.089-.2-.2-.38-.423-.563-.641-.143-.17-.278-.347-.417-.521l-.068-.086,0-.179-.044-.053a.222.222,0,0,1,0-.037l-.086-.145c-.026-.115-.056-.23-.077-.346-.039-.212-.085-.424-.106-.638-.025-.254-.028-.51-.04-.766l.009-.461c.2-.07.085-.246.122-.371l.084-.1,0-.175.149,0,.041.092a.971.971,0,0,0-.049.122c-.086.318.216.474.306.72a.9.9,0,0,0,.206.271c.138.148.24.118.33-.061a3.72,3.72,0,0,0,.367-1.393l.076.559a2.9,2.9,0,0,0-.111.749c.091.82.214,1.637.353,2.45a6.367,6.367,0,0,0,.271.869c.064.233.118.469.2.7.273.81.5,1.641.848,2.42a11.864,11.864,0,0,0,1.054,1.757,6.209,6.209,0,0,0,1.148,1.324A20.571,20.571,0,0,0,22.4,38.162ZM14.576,27.056v.183a3.362,3.362,0,0,0,.008.71,3.818,3.818,0,0,0,.8,1.71,1.525,1.525,0,0,0,.938.563l-.1-.449-.39-2.9-.3.392a1.956,1.956,0,0,1-.822-.806l-.04-.148-.057.006V26.6l-.028.317Z"/><path class="cls-14" d="M16.875,44.56c.056-.237.1-.478.169-.711a6.616,6.616,0,0,1,.643-1.679l.108.028-.188.481-.019-.018.018.019a1.734,1.734,0,0,1,.013.287c-.029.262-.074.523-.1.786a.207.207,0,0,0,.063.161,4.035,4.035,0,0,0,.882.595,7.913,7.913,0,0,0,2.1.654c.592.062,1.185.12,1.776.188.325.038.649.092.973.138l-.106.21a2.866,2.866,0,0,0-.288-.068c-.529-.069-1.059-.133-1.588-.2-.681-.087-1.361-.184-2.044-.258a.738.738,0,0,0-.358.1,4.549,4.549,0,0,0-.4.237l.14-.239.2-.134-.026-.063-.36.041c-.052-.028-.1-.077-.154-.081-.125-.011-.252,0-.378,0l-.985,0Z"/><path class="cls-14" d="M38,43.646l.056.3-.07.2c-.108,0-.217,0-.325-.005a1.189,1.189,0,0,0-.153-.02,12.536,12.536,0,0,0-2.506.442,1,1,0,0,0-.141.066l-2.417.634-.741.175h0l-1.155.161c-.076.011-.151.018-.227.026l0-.09c.395-.079.795-.139,1.185-.239.96-.247,1.918-.5,2.871-.772.553-.158,1.093-.358,1.641-.536a1.127,1.127,0,0,1,.2-.025l.1-.081.176-.013.1-.08.545-.149.1-.084,0,0,.091,0Z"/><path class="cls-15" d="M16.225,30.419c.274-.061.276.192.343.329a1.522,1.522,0,0,1,.118.524.438.438,0,0,1-.129.3l.073.3c-.284-.464-.552-.94-.858-1.39-.211-.312-.482-.583-.713-.883a3.348,3.348,0,0,1-.242-.426c.139.174.274.351.417.521.183.218.366.437.563.641.054.056.16.061.242.089h0a1.41,1.41,0,0,0,.513.77c-.075-.317-.053-.605-.331-.77Z"/><path class="cls-15" d="M18.442,35.165a2.011,2.011,0,0,1,.246.19c.421.444.826.9,1.258,1.336a6.943,6.943,0,0,0,.617.458,1.485,1.485,0,0,1,.205.251A8.623,8.623,0,0,1,18.5,35.285.845.845,0,0,1,18.442,35.165Z"/><path class="cls-15" d="M14.39,26.919c.012.256.015.512.04.766.021.214.067.426.106.638.021.116.051.231.077.346a.073.073,0,0,1-.036,0A3.605,3.605,0,0,1,14.39,26.919Z"/><path class="cls-10" d="M14.758,25.807l-.149,0c-.022-.115.068-.271-.119-.325l-.007-.093.033-.178v-.053a.171.171,0,0,1,0-.032c0-.192,0-.377.281-.331a.279.279,0,0,0-.145.384A4.005,4.005,0,0,1,14.758,25.807Z"/><path class="cls-15" d="M17.291,33.183c.06.09.125.177.179.271.136.235.27.471.4.71a1.067,1.067,0,0,1,.066.212Z"/><path class="cls-15" d="M20.77,37.4c.043,0,.1-.023.129,0q.41.252.811.519c.036.025.048.086.072.13Z"/><path class="cls-7" d="M45.28,24.472c-.219-.209-.441-.414-.653-.629-.033-.033-.021-.109-.03-.165.188.2.378.408.563.615A1.6,1.6,0,0,1,45.28,24.472Z"/><path class="cls-15" d="M14.49,25.486c.187.054.1.21.119.325l0,.175-.084.1c-.037.125.081.3-.122.371.048-.214.11-.426.139-.643A1.159,1.159,0,0,0,14.49,25.486Z"/><path class="cls-15" d="M14.516,25.13a.171.171,0,0,0,0,.032v.053l-.033.178a.926.926,0,0,0-.563-.613.059.059,0,0,1-.007-.037.757.757,0,0,1,.229.071C14.274,24.909,14.392,25.024,14.516,25.13Z"/><path class="cls-15" d="M16.976,32.443c.029.006.079.006.083.02.066.208.125.418.186.628Z"/><path class="cls-15" d="M12.547,23.278a.7.7,0,0,1,.034.171c-.01.188-.03.376-.046.564C12.375,23.766,12.562,23.524,12.547,23.278Z"/><path class="cls-7" d="M44.858,25.1l.274-.283.17-.149A.519.519,0,0,1,44.858,25.1Z"/><path class="cls-15" d="M16.647,31.893a.488.488,0,0,1,.276.461Z"/><path class="cls-15" d="M18.119,34.657a.633.633,0,0,1,.32.5Z"/><path class="cls-15" d="M12.554,24.1l.241.3Z"/><path class="cls-15" d="M21.784,38.047l.345.118-.01.1Z"/><path class="cls-15" d="M17.937,34.38c.152.031.182.142.179.274Z"/><path class="cls-15" d="M12.641,22.864c.047.116.073.225-.086.276Z"/><path class="cls-15" d="M14.7,28.814a.222.222,0,0,0,0,.037l.044.053,0,.179-.135-.277Z"/><path class="cls-15" d="M12.732,22.541l-.077.231Z"/><path class="cls-15" d="M13.186,24.6l.23.076Z"/><path class="cls-10" d="M14.7,28.814l-.085-.008V28.8a.026.026,0,0,0-.01-.033l-.026-.1a.073.073,0,0,0,.036,0Z"/><path class="cls-15" d="M13.508,24.693l.136.047Z"/><path class="cls-7" d="M44.546,23.55l-.041-.145Z"/><path class="cls-15" d="M12.9,24.478l.1.08Z"/><path class="cls-15" d="M12.8,24.4l.105.079Z"/><path class="cls-15" d="M22.17,38.314l-.043.034Z"/><path class="cls-12" d="M33.845,38.157l-.022-.039Z"/><path class="cls-15" d="M14.6,28.768a.026.026,0,0,1,.01.033A.022.022,0,0,1,14.6,28.768Z"/><path class="cls-16" d="M18.524,45.51a4.549,4.549,0,0,1,.4-.237.738.738,0,0,1,.358-.1c.683.074,1.363.171,2.044.258.529.067,1.059.131,1.588.2a2.866,2.866,0,0,1,.288.068c.023.056.069.113.065.168-.055.815-.138,1.63-.171,2.446-.048,1.194-.065,2.39-.083,3.585,0,.2.09.4-.161.544a.4.4,0,0,0-.12.347,1.532,1.532,0,0,0,.26.66.875.875,0,0,1,.25.718.487.487,0,0,0,.006.272.929.929,0,0,0,.293.317c.048.03.2-.043.256-.11a.53.53,0,0,0,.112-.3c.019-.307-.091-.639.154-.9.324-.342.189-.7.067-1.065a.983.983,0,0,1-.083-.273c-.007-.7-.023-1.409,0-2.112.035-1.115.1-2.23.153-3.344.014-.278.054-.556.082-.833l.445.094c.278.079.554.164.833.236a1.131,1.131,0,0,0,.461.074,2.461,2.461,0,0,0,.529-.232l.143,0c.083.243.3.2.462.177.466-.055.928-.147,1.391-.226a.272.272,0,0,0,.076-.045v.008l.029-.027.667-.064a2.242,2.242,0,0,1,.037.292c0,.7,0,1.4,0,2.1q.024,2.794.054,5.589a.736.736,0,0,1-.144.464,1.311,1.311,0,0,0-.112.453l.058.318.012.075.233.751,0,0a.906.906,0,0,1-.272.1q-4.677.008-9.353,0H18.9c.02-.215.05-.428.059-.643.008-.2-.068-.417,0-.584a5.32,5.32,0,0,0,.165-1.488c.006-.053-.057-.115-.115-.222-.066.256-.116.436-.159.616q-.276,1.16-.55,2.321H15.164c.009-.1.014-.2.03-.294.065-.393.141-.784.2-1.178.032-.215.021-.435.051-.65.068-.477.168-.949.221-1.427.043-.381.037-.767.053-1.152a.262.262,0,0,0,.09-.369c.025-.17.052-.34.072-.511.014-.12.017-.242.025-.363l.018-.093.036-.134.013-.1L16,49.55l.026-.142a.893.893,0,0,0,.2-.683l0-.008.133-.045a.744.744,0,0,1,.242.122c.232.264.446.545.673.814.153.182.31.361.477.528s.331.288.489.439c.408.389.808.785,1.217,1.173.11.1.171.193.05.326a.372.372,0,0,0-.048.119l-.6.557.164.252.083-.037-.09-.214c.156-.134.3-.275.468-.4a.679.679,0,0,0,.283-.671c-.038-.341-.043-.686-.062-1.029l-.06,0-.019.227-.072.6c-.053-.017-.089-.019-.107-.037-.3-.307-.594-.616-.892-.923-.141-.145-.3-.279-.427-.432-.2-.229-.373-.48-.576-.7a5.886,5.886,0,0,1-.963-1.314l-.022-.063.006,0c.159-.022.147-.136.136-.251l.037-.114a.043.043,0,0,0,.024-.034l.006-.01.042-.084.022-.05.1-.173a1.073,1.073,0,0,1,.1-.194c.215-.268.435-.532.653-.8l.026-.034a.016.016,0,0,0,.015-.016l.081-.079a.046.046,0,0,0,.023-.035l.042-.049.032-.039.136-.154.007-.008.084-.087.008-.006.347-.273A.022.022,0,0,0,18.524,45.51Z"/><path class="cls-17" d="M32.921,38.4c.075-.042.157-.13.224-.12.552.082,1.1.182,1.651.278a1.239,1.239,0,0,0,.22.043c.579-.01.731.475.983.842.073.1.129.222.193.333a4.031,4.031,0,0,1-.462-.472c-.142-.2-.151-.207-.317-.032-.227.237-.469.459-.716.675q-1.2,1.046-2.4,2.08a.954.954,0,0,1-.215.105l1.065-.956c.594-.535,1.189-1.069,1.78-1.608.254-.231.248-.264-.031-.566-.016.183.166.409-.121.509-.037-.11-.126-.235-.1-.326a.346.346,0,0,0-.122-.4,1.245,1.245,0,0,0-.264-.129A2.623,2.623,0,0,0,32.921,38.4Z"/><path class="cls-3" d="M26.77,45.633a2.345,2.345,0,0,1-1.016-.544H27.8l-.994.541A.15.15,0,0,1,26.77,45.633Z"/><path class="cls-3" d="M37.636,42.269c.1.279.2.557.3.838a1.78,1.78,0,0,1,.048.264l-.416.046.09-.194c-.039-.307-.078-.61-.111-.914C37.542,42.3,37.6,42.283,37.636,42.269Z"/><path class="cls-17" d="M37.564,43.417l.416-.046.024.275-.671-.087v-.05Z"/><path class="cls-15" d="M29.449,44.335a2.168,2.168,0,0,1,.288-.025,2.014,2.014,0,0,1,.285.054L30,44.39a.83.83,0,0,0-.788.3l.235-.351Z"/><path class="cls-3" d="M37.427,41.892l.141.325-.3.024Z"/><path class="cls-17" d="M31.8,42.355l.281-.228Z"/><path class="cls-17" d="M30.838,43.188l.274-.229Z"/><path class="cls-17" d="M31.158,42.911l.178-.15Z"/><path class="cls-17" d="M30.563,43.419l.131-.1Z"/><path class="cls-17" d="M30.333,43.6l.13-.1Z"/><path class="cls-3" d="M37.333,43.509v.05l-.091,0Z"/><path class="cls-17" d="M37.244,43.56l-.1.084Z"/><path class="cls-17" d="M36.324,43.886l-.1.081Z"/><path class="cls-17" d="M36.6,43.793l-.1.08Z"/><path class="cls-15" d="M30.022,44.364l.121.034-.016.05L30,44.39Z"/><path class="cls-11" d="M28.652,45.883l-.029.027A.041.041,0,0,1,28.652,45.883Z"/><path class="cls-9" d="M38.856,48.674l.035-.056c.045.222.09.445.134.667l-.1-.21h0l-.051-.314Z"/><path class="cls-4" d="M38.922,49.075l.1.21.017.077-.029.14C38.787,49.4,38.937,49.22,38.922,49.075Z"/><path class="cls-18" d="M38.922,49.075c.015.145-.135.326.091.427q.089.585.176,1.172a.443.443,0,0,0-.027.376c.056.306.033.626.064.938.038.378.094.755.151,1.13.05.323.117.643.167.966.043.277.069.558.11.836.052.344.112.687.168,1.031l-8.656,0H30.44c.081-.276.144-.52.225-.757a1.11,1.11,0,0,0-.034-.909,1.118,1.118,0,0,1-.114-.48c-.023-1.832-.029-3.664-.054-5.5-.011-.768-.059-1.535-.088-2.3,0-.082,0-.165,0-.287.237-.032.458-.059.679-.092.2-.03.4-.062.6-.1.024,0,.04-.056.059-.086h0a.936.936,0,0,0,.248,0c.168-.048.329-.116.493-.175l2.417-.634.165.167.121.176a.622.622,0,0,1,.811-.124,6.233,6.233,0,0,1,.573.433,2.024,2.024,0,0,1,.262.375c.012.018.02.042.036.052a1.484,1.484,0,0,1,.545.632c.053.108.11.139.211.07a.032.032,0,0,1,.019.022c-.055.212.013.333.246.333l0,0,.089.1,0,0,.1.185h0l.175.56c-.253.3-.505.593-.76.887-.064.073-.147.13-.205.207-.223.294-.426.605-.663.888a7.879,7.879,0,0,0-.711.769,5.268,5.268,0,0,1-.9,1.044c-.054.05-.153.052-.231.075v-.147a2.112,2.112,0,0,0-.232.407.337.337,0,0,0,.058.293c.27.209.56.392.848.577a.835.835,0,0,0,.216.065l.019-.047-.807-.542-.1-.091h0c.066-.062.135-.122.2-.188.283-.3.564-.607.847-.911.041-.043.088-.081.127-.126.429-.5.856-1,1.287-1.5.2-.238.416-.47.63-.7s.407-.425.61-.637c.113.233.224.467.34.7.011.021.049.028.075.041l.01.087c-.109.1-.092.2.051.314Z"/><path class="cls-3" d="M35.815,44.577l.815-.083a7.156,7.156,0,0,1,1.344,1.4,7.826,7.826,0,0,1,.652.97c.114.185,0,.432-.272.643l-.319-.455h0l-.1-.185,0,0-.089-.1,0,0-.246-.333a.032.032,0,0,0-.019-.022l-.712-.924-.048-.056A4.022,4.022,0,0,0,36.5,45.1C36.279,44.916,36.044,44.75,35.815,44.577Z"/><path class="cls-19" d="M38.441,47.934c-.2.212-.41.421-.61.637s-.425.462-.63.7c-.431.5-.858,1-1.287,1.5-.039.045-.086.083-.127.126-.283.3-.564.608-.847.911-.062.066-.131.126-.2.188-.154-.028-.206-.1-.124-.252.046-.085.081-.176.121-.264.078-.023.177-.025.231-.075a5.268,5.268,0,0,0,.9-1.044,7.879,7.879,0,0,1,.711-.769c.237-.283.44-.594.663-.888.058-.077.141-.134.205-.207.255-.294.507-.591.76-.887C38.482,47.579,38.436,47.775,38.441,47.934Z"/><path class="cls-19" d="M38.9,46.642l.325.552a.654.654,0,0,0-.134-.069.961.961,0,0,0-.2,0c0-.046,0-.149,0-.253C38.9,46.794,38.9,46.718,38.9,46.642Z"/><path class="cls-19" d="M39.227,47.194l.045.094h-.12Z"/><path class="cls-4" d="M36.877,45.491l.712.924c-.1.069-.158.038-.211-.07a1.484,1.484,0,0,0-.545-.632c-.016-.01-.024-.034-.036-.052a2.024,2.024,0,0,0-.262-.375,6.233,6.233,0,0,0-.573-.433.622.622,0,0,0-.811.124L35.03,44.8l.785-.224c.229.173.464.339.686.521a4.022,4.022,0,0,1,.328.337Z"/><path class="cls-3" d="M17.7,46.308c-.218.266-.438.53-.653.8a1.073,1.073,0,0,0-.1.194l-.1.173-.022.05-.042.084-.006.01-.024.034-.037.114-.136.251-.006,0c-.173.009-.323-.158-.329-.391a.624.624,0,0,1,.059-.287,5.74,5.74,0,0,1,.94-1.424c.189-.2.347-.421.519-.633l.114-.021.075-.225c.126,0,.253-.01.378,0,.053,0,.1.053.154.081l-.314.094.017.062h.48l-.14.239a.022.022,0,0,1-.024.018l-.347.273-.008.006-.084.087-.007.008-.136.154-.032.039-.042.049a.046.046,0,0,1-.023.035l-.081.079a.016.016,0,0,1-.015.016Z"/><path class="cls-4" d="M29.462,55.857l-.233-.751A.954.954,0,0,1,29.462,55.857Z"/><path class="cls-4" d="M29.217,55.031l-.058-.318Z"/><path class="cls-8" d="M15.549,49.043a1.894,1.894,0,0,1,.478-1.18l.192.212.047.051-.006,0,.095.159-.01.111-.028.1-.086.143-.018-.015c-.011-.067,0-.15-.036-.2a1.545,1.545,0,0,0-.233-.207.769.769,0,0,0-.139.184c-.055.156-.083.322-.136.479A.7.7,0,0,1,15.549,49.043Z"/><path class="cls-19" d="M16.317,48.488l.028-.1.248-.315a5.886,5.886,0,0,0,.963,1.314c.2.225.377.476.576.7.132.153.286.287.427.432.3.307.593.616.892.923.018.018.054.02.107.037l.072-.6c0,.35.015.7,0,1.048,0,.09-.107.175-.164.262a.372.372,0,0,1,.048-.119c.121-.133.06-.223-.05-.326-.409-.388-.809-.784-1.217-1.173-.158-.151-.334-.284-.489-.439s-.324-.346-.477-.528c-.227-.269-.441-.55-.673-.814a.744.744,0,0,0-.242-.122Z"/><path class="cls-4" d="M16.355,48.281l-.095-.159Z"/><path class="cls-4" d="M16.266,48.126l-.047-.051Z"/><path class="cls-16" d="M39.822,55.951c-.056-.344-.116-.687-.168-1.031-.041-.278-.067-.559-.11-.836-.05-.323-.117-.643-.167-.966-.057-.375-.113-.752-.151-1.13-.031-.312-.008-.632-.064-.938a.443.443,0,0,1,.027-.376,3.891,3.891,0,0,1,.144.508c.093.664.17,1.329.256,1.993.069.528.143,1.056.21,1.584a.851.851,0,0,1-.018.2l.055.079q.072.456.146.911Z"/><path class="cls-19" d="M18.3,55.952q.275-1.161.55-2.321c.043-.18.093-.36.159-.616.058.107.121.169.115.222a5.32,5.32,0,0,1-.165,1.488c-.068.167.008.388,0,.584-.009.215-.039.428-.059.643Z"/><path class="cls-19" d="M15.717,51.252c-.016.385-.01.771-.053,1.152-.053.478-.153.95-.221,1.427-.03.215-.019.435-.051.65-.057.394-.133.785-.2,1.178-.016.1-.021.2-.03.294-.1.007-.126-.023-.1-.134.062-.313.111-.629.152-.946.067-.5.126-1.01.182-1.516.032-.279.052-.558.077-.837l.024-.258c.011-.138.023-.276.034-.415l.034-.221.05-.167L15.6,51.3l.12-.048Z"/><path class="cls-18" d="M39.836,55.038l-.055-.079Z"/><path class="cls-4" d="M15.9,50.009c-.008.121-.011.243-.025.363-.02.171-.047.341-.072.511l-.107,0Z"/><path class="cls-4" d="M16.226,48.725a.893.893,0,0,1-.2.683Z"/><path class="cls-19" d="M15.7,50.886l.107,0a.262.262,0,0,1-.09.369h0l-.038-.273Z"/><path class="cls-4" d="M15.678,50.979l.038.273-.12.048Z"/><path class="cls-4" d="M15.529,51.847c-.011.139-.023.277-.034.415C15.507,52.124,15.518,51.985,15.529,51.847Z"/><path class="cls-4" d="M16.317,48.488l.045.184-.133.045,0-.086Z"/><path class="cls-4" d="M15.958,49.782l-.036.134Z"/><path class="cls-4" d="M16,49.55l-.028.136Z"/><path class="cls-4" d="M15.613,51.459l-.05.167Z"/><path class="cls-20" d="M16.085,12.075a.942.942,0,0,0-.2.136c-.156.18-.3.37-.448.556-.065.019-.161.018-.189.061-.174.267-.334.545-.5.819l-.008.088c-.236.11-.257.343-.318.554l-.052.092-.086.185h0l-.045.048-.043.092c-.123-.046-.179.009-.187.128,0,.065,0,.132,0,.2l0,.086c-.319-.073-.38-.17-.291-.452a.426.426,0,0,0,.013-.159c-.037-.337-.077-.674-.116-1.015.171-.073.34-.13.328-.384a.551.551,0,0,1,.353-.473c.226-.125.292-.249.175-.465v0l.044-.046c.321-.352.634-.712.967-1.053.2-.207.437-.382.654-.575.3-.262.582-.531.879-.789.188-.165.383-.323.583-.473.379-.285.757-.571,1.148-.839a4.852,4.852,0,0,1,.556-.286c.2-.1.393-.2.591-.3q.749-.374,1.5-.741a.9.9,0,0,1,.216-.056c.27-.057.54-.116.811-.166.392-.072.783-.164,1.179-.2a9.58,9.58,0,0,1,1.174,0c.508.02,1.016.058,1.524.091a.467.467,0,0,1,.129.039c.366.136.735.266,1.1.412.31.124.563-.039.824-.145.348-.141.689-.3,1.033-.45a.383.383,0,0,1,.128-.041c.772-.034,1.543-.079,2.315-.089a2.72,2.72,0,0,1,.649.15c.015,0,.028.014.042.017.4.066.812.105,1.206.2a4.576,4.576,0,0,1,1.434.448,8.426,8.426,0,0,0,.81.379c.343.171.678.354,1.017.532.152.08.307.155.457.239a4,4,0,0,1,.971.851c.153.169.335.312.5.471.217.211.435.421.643.641.283.3.56.608.835.917.253.284.519.559.744.864.3.41.579.84.852,1.271a5.737,5.737,0,0,1,.282.566l.214.65c-.235.255-.238.281-.019.429l.1-.157a2.469,2.469,0,0,1,.115.4c.018.148,0,.281.15.4.074.057.035.257.051.391,0,.021.023.039.035.058a.713.713,0,0,0,.133.6c.022.027.046.088.033.1-.108.133-.037.223.037.342.041.066,0,.189-.023.281-.007.028-.113.065-.128.05a2.473,2.473,0,0,1-.456-.489.73.73,0,0,0-.5-.4,1.489,1.489,0,0,0-.013.2c.028.482.062.965.088,1.448a2.064,2.064,0,0,1-.115.7,5.26,5.26,0,0,0-.1,1.087c.008.042-.093.083-.09.114a.832.832,0,0,1-.238.679c-.016.017-.006.06-.008.09a2.382,2.382,0,0,1-.436,1.11,2.213,2.213,0,0,0-.136.509c-.027.094-.047.22-.115.267a1.419,1.419,0,0,0-.386.557c-.16.293-.286.67-.54.828-.322.2-.31.491-.427.752-.016.035-.015.092-.039.105-.059.031-.168.076-.187.055-.153-.174-.262-.04-.332.061-.133.192-.234.407-.355.623l-.213-.022L38.347,26,38.2,26l-.086-.012c-.02-.063-.039-.126-.061-.187-.041-.111-.086-.221-.127-.332A2.588,2.588,0,0,0,37.8,25.1c-.2-.347-.407-.685-.6-1.031-.059-.1-.088-.221-.144-.325a4.573,4.573,0,0,1-.313-.562c-.112-.312-.177-.64-.269-.96-.04-.137-.108-.266-.143-.4-.082-.318-.13-.647-.234-.957a2.054,2.054,0,0,1-.184-.909l.046-.047.135-.189.345-.605-.041-.045a2.529,2.529,0,0,0-.338.267,3.646,3.646,0,0,0-.294.408,6.285,6.285,0,0,1-.608.856c-.343.349-.742.643-1.118.96-.032.027-.069.05-.1.079a2.809,2.809,0,0,1-.544.469,11.413,11.413,0,0,1-1.208.473q-.543.2-1.1.361a2.98,2.98,0,0,1-.531.1.242.242,0,0,1-.187-.083c-.024-.034.018-.121.04-.181.032-.084.073-.164.11-.246l.265-.6a4.242,4.242,0,0,0,0-1.944,11.851,11.851,0,0,0-.621-1.821c-.183-.476-.4-.939-.609-1.4-.149-.332-.309-.658-.465-.988l-.1.013-.237.894c-.075.073-.193.135-.218.223a4.585,4.585,0,0,0-.094.612l-.006.089-.038.052a.273.273,0,0,1,0,.041,2.914,2.914,0,0,0-.2.29c-.11.209-.211.422-.309.637q-.264.583-.52,1.171a2.471,2.471,0,0,0-.079.253h0a.748.748,0,0,0-.414.6h0a.516.516,0,0,0-.161.093,3.137,3.137,0,0,1-.666.732,3.761,3.761,0,0,1-1.648.841c-.023,0-.04.056-.06.085h0a2.887,2.887,0,0,1-.619.08,7.139,7.139,0,0,1-.859-.173.317.317,0,0,1,0-.044l0-.051a2.3,2.3,0,0,0,.286-.545,7.763,7.763,0,0,0,.17-1.2c.021-.318-.043-.641-.035-.96q.026-.949.093-1.9a5.341,5.341,0,0,1,.128-.833c.105-.456.234-.906.358-1.376a1.864,1.864,0,0,0-.637,1.275l-.041.094,0,.093a1.946,1.946,0,0,0-.12.219c-.162.4-.318.813-.479,1.219a3.077,3.077,0,0,1-.215.5c-.177.285-.38.554-.573.829a4.215,4.215,0,0,1-.31.423,5.107,5.107,0,0,1-.437.407,2.446,2.446,0,0,1-.44.352.215.215,0,0,0-.136.25h0c-.256-.015-.378.2-.556.319-.191-.063-.268,0-.324.276h-.045l-.282-.122c-.125.1-.214.179-.3.253-.134.109-.282.318-.4.3-.262-.032-.446.126-.686.168a.149.149,0,0,1,.04-.042l-.156-.1-.038.057a1.006,1.006,0,0,0,.154.087,2.374,2.374,0,0,1-.263.315,1.327,1.327,0,0,1-.219.113c-.132.081-.252.18-.388.25a2.768,2.768,0,0,1-.505.208.644.644,0,0,1-.387.014,3.322,3.322,0,0,1-.485-.319.135.135,0,0,0-.107-.017c-.171.086-.208-.028-.254-.153-.062-.169-.141-.178-.257-.04-.05.06-.1.12-.187.22-.033-.105-.055-.157-.066-.212q-.12-.6-.235-1.2a1.178,1.178,0,0,1-.04-.247c.01-.466.031-.933.042-1.4.018-.753.038-1.5.043-2.257A1.5,1.5,0,0,0,14.476,17a.647.647,0,0,1,.324-.888l-.345-.09.23-.729.115.139a.891.891,0,0,0,.162-.779l.163.038.188.038a1.856,1.856,0,0,0-.013-.212c-.026-.141-.069-.28-.086-.422a.653.653,0,0,1,.049-.209l.168.075a.889.889,0,0,1,.116-.32,6.086,6.086,0,0,1,.468-.4c.02-.019.012-.09,0-.125-.041-.081-.106-.151-.143-.233-.061-.135-.127-.1-.2-.022q.16-.3.322-.608c.031-.059.067-.115.1-.173l.138-.231.079-.036-.019-.03-.06.066Zm7.649,2.861.239-.2.088.042-.045-.546-.073-.005ZM14.212,12.9l-.09.026a.245.245,0,0,0,.077.329c.017.016.079-.016.12-.025Zm-.166,1.341c-.1.227-.095.236.1.24Zm-.147.528-.062,0,.021.135.041-.006Zm.355-.686c.005-.013.018-.028.014-.038s-.024-.012-.036-.017c-.006.013-.018.028-.015.037S14.241,14.081,14.254,14.087Zm-.209-.148-.017.038c.013,0,.029.018.038.014s.012-.023.017-.036Z"/><path class="cls-21" d="M38.347,26l.014-.173.213.022c.121-.216.222-.431.355-.623.07-.1.179-.235.332-.061.019.021.128-.024.187-.055.024-.013.023-.07.039-.105.117-.261.1-.552.427-.752.254-.158.38-.535.54-.828a1.419,1.419,0,0,1,.386-.557c.068-.047.088-.173.115-.267a2.213,2.213,0,0,1,.136-.509,2.382,2.382,0,0,0,.436-1.11c0-.03-.008-.073.008-.09a.832.832,0,0,0,.238-.679c0-.031.1-.072.09-.114a5.26,5.26,0,0,1,.1-1.087,2.064,2.064,0,0,0,.115-.7c-.026-.483-.06-.966-.088-1.448a1.489,1.489,0,0,1,.013-.2.73.73,0,0,1,.5.4,2.473,2.473,0,0,0,.456.489c.015.015.121-.022.128-.05.025-.092.064-.215.023-.281-.074-.119-.145-.209-.037-.342.013-.015-.011-.076-.033-.1a.713.713,0,0,1-.133-.6c.115-.009.174.017.19.158a2.616,2.616,0,0,0,.153.728,2.387,2.387,0,0,1,.267,1.451c-.006.029.026.071.049.1.068.081.141.158.212.237l0,.093,0,.14v.087c0,.129-.014.259-.008.388,0,.1.044.191.042.286,0,.194-.04.387-.034.58,0,.131.075.259.084.39.025.38.027.762.051,1.143a9.333,9.333,0,0,0,.1,1,1.205,1.205,0,0,0,.22.362c0,.015,0,.029,0,.044l.044.324c-.058.037-.115.075-.174.11-.3.174-.323.242-.2.561,0,.01-.011.027-.022.053l-.376.035c.034.04.042.059.052.06.39.069.781.134,1.171.206.024,0,.041.054.061.083-.177.031-.353.073-.532.09-.39.038-.785.047-1.173.1-.227.031-.264.256-.3.44-.081.44-.119.89-.222,1.325-.134.569-.316,1.127-.474,1.691-.032.116-.048.238-.071.358a1.385,1.385,0,0,1-.086-.232c-.026-.135-.034-.273-.05-.41v-.138a.471.471,0,0,0,.044-.166c-.024-.231-.055-.463-.094-.693a.532.532,0,0,0-.086-.155l-.049-.182c.112-.17-.032-.189-.136-.232h0l-.045-.047-.008-.084c0-.042.029-.1.01-.123-.147-.152-.094-.315-.046-.483a.441.441,0,0,0,0-.14l.007-.092.089-.068c-.092.043-.262-.185-.281.068l-.248-.274-.138.179c.082.1.192.216.18.23-.083.1-.128.284-.325.216l-.405-.145.2-.3.089-.09c.128,0,.254.005.233-.182h0c.18.028.218-.079.174-.214a.249.249,0,0,0-.161-.146c-.147-.029-.29-.005-.331.18h0l-.368.276h0l-.231.182h0a2.713,2.713,0,0,0-.83.554h0c-.06,0-.139-.019-.179.011C38.708,26.29,38.528,26.152,38.347,26Zm5.347-3.32-.046-.276c-.014-.206-.035-.411-.04-.617a1.867,1.867,0,0,1,.035-.38c.016-.086.091-.167.091-.251a4.2,4.2,0,0,0-.055-.482c-.4-.07-.4-.067-.4.3a1.1,1.1,0,0,1-.007.32.546.546,0,0,0,.1.461c.094.181.251.359.153.619-.051.137.024.321.043.484l.095,0Zm.183.635c0-.038.015-.085,0-.112a2.206,2.206,0,0,0-.157-.193.635.635,0,0,0-.109.211.583.583,0,0,0,.057.262c.019.045.079.073.12.108a.676.676,0,0,0,.088-.141A.4.4,0,0,0,43.877,23.311Zm-.8-3.974c-.192.173-.188.2.017.294Zm.156-1.194-.1-.011-.015.245.091.007Zm-.57.288.074-.047-.086-.127-.06.036Zm.875.716h.045V18.97h-.045Zm-2.769,6.669c.026-.042.051-.066.05-.09s-.042-.045-.057-.041a.086.086,0,0,0-.048.06C40.707,25.762,40.737,25.783,40.764,25.816Z"/><path class="cls-22" d="M15.663,12.857c.077-.075.143-.113.2.022.037.082.1.152.143.233.017.035.025.106,0,.125a6.086,6.086,0,0,0-.468.4.889.889,0,0,0-.116.32l-.168-.075a.653.653,0,0,0-.049.209c.017.142.06.281.086.422a1.856,1.856,0,0,1,.013.212l-.188-.038-.163-.038a.891.891,0,0,1-.162.779l-.115-.139-.23.729.345.09a.647.647,0,0,0-.324.888,1.5,1.5,0,0,1,.084.537c-.005.752-.025,1.5-.043,2.257-.011.466-.032.933-.042,1.4a1.178,1.178,0,0,0,.04.247q.116.6.235,1.2c.011.055.033.107.066.212.085-.1.137-.16.187-.22.116-.138.2-.129.257.04.046.125.083.239.254.153a.135.135,0,0,1,.107.017,3.322,3.322,0,0,0,.485.319.644.644,0,0,0,.387-.014A2.768,2.768,0,0,0,17,22.944c.136-.07.256-.169.388-.25a1.327,1.327,0,0,0,.219-.113,4.045,4.045,0,0,0,.278-.319c.225-.038.409-.2.671-.164.12.014.268-.2.4-.3.091-.074.18-.149.3-.253l.282.122-.182.279h0c-.143-.026-.205.035-.189.178a.157.157,0,0,1-.043.009,1.073,1.073,0,0,0-.266.083,3.661,3.661,0,0,1-.553.381c-.151.06-.228.118-.239.271h0c-.115.058-.233.109-.342.176-.374.231-.752.456-1.112.705-.256.177-.463.424-.819.42-.088,0-.177.11-.265.17l-.57.024c-.078,0-.157,0-.235,0-.189.015-.416-.166-.556.116-.016.031-.138.046-.184.02-.149-.086-.284-.2-.429-.292a.41.41,0,0,0-.22-.091c-.362.042-.489-.052-.475-.418.011-.28.058-.558.089-.837.076-.133.161-.263.223-.4.014-.032-.054-.1-.084-.151l.007-.184c.214-.134.16-.366.168-.551.023-.524.006-1.05.005-1.575l-.041-.179c.116-.082.314-.527.25-.625-.107-.162-.018-.285.032-.424a1.742,1.742,0,0,0,.077-.283c.038-.217.068-.437.1-.655a.583.583,0,0,0,.019-.108,2.258,2.258,0,0,1-.015-.317c.026-.243.215-.456.138-.722-.007-.022.024-.054.031-.082q.075-.282.148-.564h0c.194.019.215-.139.223-.257a3.233,3.233,0,0,1,.57-1.265l-.054-.18,0,0a.518.518,0,0,0,.316-.481c0-.049-.009-.129.016-.144.16-.094.123-.244.127-.384l.272-.284.142-.185A.121.121,0,0,1,15.663,12.857Zm-1.721,6.284h.046v-.672h-.046Zm-.879,4.6c.026-.042.051-.065.051-.089s-.042-.045-.058-.04a.084.084,0,0,0-.047.059C13.007,23.688,13.037,23.709,13.063,23.741Z"/><path class="cls-23" d="M19.129,22.129a.157.157,0,0,0,.043-.009l.189-.178h0l.552-.369.555-.506h0c.105-.067.211-.133.315-.2A5.662,5.662,0,0,0,22.4,18.939c.211-.357.316-.776.52-1.138a2,2,0,0,0,.257-.932l0-.093.041-.094a1.864,1.864,0,0,1,.637-1.275c-.124.47-.253.92-.358,1.376a5.341,5.341,0,0,0-.128.833q-.066.948-.093,1.9c-.008.319.056.642.035.96a7.763,7.763,0,0,1-.17,1.2,2.3,2.3,0,0,1-.286.545l0,.051a.317.317,0,0,0,0,.044c.05.061.089.146.153.178a1.355,1.355,0,0,0,.309.075,1.8,1.8,0,0,0,1.016-.16h0a3.638,3.638,0,0,0,.879-.193,4.525,4.525,0,0,0,1.075-.715,4.418,4.418,0,0,0,.581-.843h0l.414-.6h0a2.693,2.693,0,0,0,.278-.384c.2-.414.4-.835.582-1.259.1-.229.165-.471.246-.708a.273.273,0,0,0,0-.041l.038-.052.006-.089.312-.835.237-.894.1-.013c.156.33.316.656.465.988.209.466.426.929.609,1.4a11.851,11.851,0,0,1,.621,1.821,4.242,4.242,0,0,1,0,1.944l-.229,0c.038-.353.093-.7.109-1.058a2.442,2.442,0,0,0-.05-.839c-.216-.658-.476-1.3-.744-1.943-.239-.572-.511-1.131-.767-1.691-.049.147-.1.3-.149.449a12.88,12.88,0,0,1-1.614,3.654,4.59,4.59,0,0,1-.73,1.041,3.965,3.965,0,0,1-1.742,1.034c-.118.021-.234.052-.352.077a3.932,3.932,0,0,1-.952.183c-.4-.018-.842-.048-1.07-.489l.238-.427a2.235,2.235,0,0,0,.326-1.224c.038-.629-.033-1.265-.052-1.9-.005-.149.014-.3.021-.448a.554.554,0,0,0-.15.2c-.2.364-.384.743-.615,1.088a4.236,4.236,0,0,1-1.014,1.191,8.554,8.554,0,0,0-.681.6l-.421.418a1.11,1.11,0,0,0-.246.09c-.439.3-.878.592-1.31.9-.5.356-1,.721-1.493,1.082l-.545.383-.147.11a.042.042,0,0,0-.038.02l-.1.029L16,24.522l-.326.084-.18.011-.327.088a.184.184,0,0,1-.041,0l-.236.086-.09,0c-.278-.046-.283.139-.281.331-.124-.106-.242-.221-.374-.316a.757.757,0,0,0-.229-.071c.211-.013.423-.02.634-.043a.724.724,0,0,0,.2-.089l0,0,.277-.087.136,0,.325-.089h0l.321-.091.089,0,.143-.085.136-.006.139-.089.088-.006.1-.087h0l.092-.09h0l.137-.091h0c.132.009.242-.01.231-.182h0l.093-.085,1.014-.742h0a2.018,2.018,0,0,0,.265-.139C18.6,22.531,18.865,22.329,19.129,22.129Z"/><path class="cls-24" d="M14.474,12.17c.117.216.051.34-.175.465a.551.551,0,0,0-.353.473c.012.254-.157.311-.328.384.039.341.079.678.116,1.015a.426.426,0,0,1-.013.159c-.089.282-.028.379.291.452-.106.288-.213.575-.318.863-.12.332-.239.665-.363,1.011l-.2-.262.011-.019-.01.02a.311.311,0,0,1-.33-.386,2.642,2.642,0,0,0-.077-.378,3.819,3.819,0,0,1,.379-2.088,9.11,9.11,0,0,1,1-1.315C14.218,12.424,14.35,12.3,14.474,12.17Z"/><path class="cls-24" d="M43.782,18.85c-.071-.079-.144-.156-.212-.237-.023-.028-.055-.07-.049-.1a2.387,2.387,0,0,0-.267-1.451,2.616,2.616,0,0,1-.153-.728c-.016-.141-.075-.167-.19-.158-.012-.019-.033-.037-.035-.058-.016-.134.023-.334-.051-.391-.153-.119-.132-.252-.15-.4a2.469,2.469,0,0,0-.115-.4l-.1.157c-.219-.148-.216-.174.019-.429l-.214-.65a3.257,3.257,0,0,1,.333.554c.213.584.393,1.181.591,1.771.079.237.185.465.254.705.059.2.082.417.121.626Z"/><path class="cls-20" d="M44.8,24.8c-.02-.029-.037-.079-.061-.083-.39-.072-.781-.137-1.171-.206-.01,0-.018-.02-.052-.06l.376-.035c.011-.026.025-.043.022-.053-.118-.319-.093-.387.2-.561.059-.035.116-.073.174-.11.059.2.1.42.366.463l.324.322,0,.276-.047.046Z"/><path class="cls-25" d="M15.161,24.517l-.136,0-.277.087,0,0a3.158,3.158,0,0,1-1.7-.3.54.54,0,0,1-.331-.488,2.537,2.537,0,0,1,.234-1.146v.183c-.031.279-.078.557-.089.837-.014.366.113.46.475.418a.41.41,0,0,1,.22.091c.145.094.28.206.429.292.046.026.168.011.184-.02.14-.282.367-.1.556-.116.078-.006.157,0,.235,0l.57-.024,0,0-.048.088h0Z"/><path class="cls-24" d="M14.011,16.039q-.073.282-.148.564c-.007.028-.038.06-.031.082.077.266-.112.479-.138.722a2.258,2.258,0,0,0,.015.317.583.583,0,0,1-.019.108c-.033.218-.063.438-.1.655a1.742,1.742,0,0,1-.077.283c-.05.139-.139.262-.032.424.064.1-.134.543-.25.625.065-.48.127-.961.193-1.441.041-.293.083-.585.13-.877A4.235,4.235,0,0,1,14.011,16.039Z"/><path class="cls-24" d="M44.247,23.322a1.205,1.205,0,0,1-.22-.362,9.333,9.333,0,0,1-.1-1c-.024-.381-.026-.763-.051-1.143-.009-.131-.08-.259-.084-.39-.006-.193.03-.386.034-.58,0-.1-.038-.19-.042-.286-.006-.129,0-.259.008-.388.029.046.08.091.083.139.036.607.05,1.217.1,1.823.048.551.136,1.1.206,1.647C44.2,22.96,44.225,23.141,44.247,23.322Z"/><path class="cls-24" d="M14.75,14.337l.054.18a3.233,3.233,0,0,0-.57,1.265c-.008.118-.029.276-.223.257a5.309,5.309,0,0,1,.175-.562c.159-.372.337-.735.509-1.1C14.7,14.359,14.732,14.35,14.75,14.337Z"/><path class="cls-24" d="M13.271,20c0,.525.018,1.051-.005,1.575-.008.185.046.417-.168.551.029-.632.055-1.264.09-1.895A.846.846,0,0,1,13.271,20Z"/><path class="cls-24" d="M13.293,17.225l-.134,1.145a1.539,1.539,0,0,1,.055-1.158Z"/><path class="cls-24" d="M15.211,13.326c0,.14.033.29-.127.384-.025.015-.015.095-.016.144a.518.518,0,0,1-.316.481Z"/><path class="cls-25" d="M14.753,13.647c.164-.274.324-.552.5-.819.028-.043.124-.042.189-.061-.187.265-.371.532-.561.8A.464.464,0,0,1,14.753,13.647Z"/><path class="cls-25" d="M44.659,24.153c-.262-.043-.307-.258-.366-.463l-.044-.324Z"/><path class="cls-24" d="M12.952,22.861v-.183l.139-.37c.03.051.1.119.084.151C13.113,22.6,13.028,22.728,12.952,22.861Z"/><path class="cls-26" d="M14.427,14.289c.061-.211.082-.444.318-.554Z"/><path class="cls-24" d="M14.015,15.032c0-.066-.005-.133,0-.2.008-.119.064-.174.187-.128Z"/><path class="cls-20" d="M15.625,12.857l-.142.185Z"/><path class="cls-24" d="M43.79,19.083l0-.14Z"/><path class="cls-24" d="M14.289,14.566l.086-.185Z"/><path class="cls-24" d="M14.244,14.614l.045-.048Z"/><path class="cls-24" d="M14.518,12.122l-.044.046Z"/><path class="cls-27" d="M25.031,39.619a8.612,8.612,0,0,0,2.805.1c.62-.083,1.229-.245,1.843-.372a.762.762,0,0,1,.047.152c.049.494.094.989.14,1.483s.083.98.146,1.468a1.079,1.079,0,0,0,.181.545c.091.106.31.1.472.147-.739.539-1.472,1.088-2.221,1.613a2.195,2.195,0,0,1-1.17.214,12.817,12.817,0,0,1-1.592-.013.843.843,0,0,1-.425-.193c-.439-.332-.864-.682-1.3-1.025.267-.1.535-.2.8-.3a.158.158,0,0,0,.07-.112c.038-.239.076-.48.1-.721a5.434,5.434,0,0,1,.057-.7.975.975,0,0,0,0-.75c-.015-.028,0-.074.006-.112.018-.284.041-.569.05-.854C25.052,40,25.037,39.809,25.031,39.619Z"/><path class="cls-2" d="M26.7,46l-.143,0,.006-.083-.27.024a1.8,1.8,0,0,1-.584.038,3.408,3.408,0,0,0-.975-.057l-.445-.095v-.5c-.214.06-.272.2-.278.4-.011.371-.061.742-.085,1.114-.048.747-.1,1.494-.128,2.243-.023.716-.012,1.433-.015,2.15a7.463,7.463,0,0,0,.01.9,7.248,7.248,0,0,0,.2.821c.053.221,0,.283-.2.3-.009.092.014.209-.033.253-.145.138-.105.3-.105.462,0,.137.026.275.021.411,0,.055-.06.107-.093.161-.135-.393.067-.8-.3-1.147l.316.041c-.11-.091-.167-.178-.234-.186-.11-.014-.228.038-.265-.128a2.974,2.974,0,0,1-.1-.347c-.019-.184.069-.238.269-.192l.054.019-.023-.065.177-.115-.185-.089c0-.225,0-.454,0-.684.028-1.106.045-2.213.094-3.318.042-.951.126-1.9.182-2.85.014-.236-.018-.474,0-.709.007-.094.091-.183.14-.274-.336.17-.4.291-.379.628.006.122,0,.245-.005.367-.324-.046-.648-.1-.973-.138-.591-.068-1.184-.126-1.776-.188-.1-.042-.207-.087-.312-.126-.544-.2-1.093-.4-1.632-.618a.7.7,0,0,1-.5-.642,2.757,2.757,0,0,1,.115-.856c.16-.477.38-.933.57-1.4.126-.311.251-.623.361-.941.125-.358.231-.723.346-1.085l.089-.028c.187.241.383.477.561.725a9.463,9.463,0,0,0,.7,1c.477.513,1,.982,1.514,1.462.49.46.986.912,1.483,1.363a.7.7,0,0,0,.2.086h0l.157.11.01.01c-.051.159.058.154.16.156l1.018.764a3.651,3.651,0,0,0,1.113.655C26.591,45.823,26.637,45.929,26.7,46Z"/><path class="cls-9" d="M22.4,38.162a20.571,20.571,0,0,1-2.608-1.778,6.209,6.209,0,0,1-1.148-1.324A11.864,11.864,0,0,1,17.591,33.3c-.345-.779-.575-1.61-.848-2.42-.077-.229-.131-.465-.2-.7-.031-.21-.066-.419-.093-.63-.081-.618-.163-1.236-.239-1.855-.064-.527-.121-1.055-.181-1.583l-.076-.559.009-.015a.254.254,0,0,0-.016-.028v-.144l.032-.3c.067-.032.14-.1.2-.086a.228.228,0,0,1,.125.163c.056.392.121.784.14,1.179a11.077,11.077,0,0,0,.288,2.026c.081.347.1.708.19,1.053.15.6.331,1.2.5,1.8a7.917,7.917,0,0,0,.265.967c.267.641.574,1.265.869,1.894a2.725,2.725,0,0,0,.154.251,4.033,4.033,0,0,0,.388.624c.36.4.746.783,1.132,1.162a4.615,4.615,0,0,0,.529.437,5.744,5.744,0,0,0,1.051.766,8.963,8.963,0,0,1,1.075.669c.294.184.584.379.894.536s.69.255,1,.44a1.745,1.745,0,0,0,.755.212,10.425,10.425,0,0,0,1.323.008,4.112,4.112,0,0,0,.651-.083c.17-.032.334-.1.5-.14.416-.108.838-.2,1.25-.32.43-.127.854-.274,1.276-.423.375-.133.75-.268,1.114-.426.212-.092.4-.238.6-.349.456-.249.917-.489,1.374-.736a7.511,7.511,0,0,0,.709-.406c.249-.174.476-.381.713-.573.062-.051.145-.037.191-.155a1.417,1.417,0,0,1,.68-.693,1.074,1.074,0,0,0,.441-.375c.122-.243.189-.362.422-.387a7.109,7.109,0,0,1-1.674,1.855c-.638.539-1.311,1.039-1.987,1.53a8.631,8.631,0,0,1-.933.52c-.086.048-.169.1-.254.148l-.461.23h-.022l-.019.01-.425.22a.039.039,0,0,0-.035.011l-.137.053-1.478.493-.04.027-.091.02-.052.042-.014.01-.017,0c-.135.011-.272.014-.406.035-.277.043-.551.1-.827.143-.188.027-.379.031-.568.046a4.025,4.025,0,0,1-.5.04c-.348-.016-.7-.053-1.043-.081a4.775,4.775,0,0,1-1.892-.511c-.417-.171-.809-.4-1.212-.606l-.155-.09,0,0-.052-.035Z"/><path class="cls-1" d="M23.422,39.014l.176.082c.044.1.065.273.136.3a3.729,3.729,0,0,0,.638.108v2.685h-.309c-.026-.033-.048-.091-.078-.095a3.277,3.277,0,0,0-.531-.042,3.528,3.528,0,0,1-.868.049,1.244,1.244,0,0,1-.544-.455c-.056-.068-.033-.192-.176-.218-.056-.01-.1-.1-.146-.156s-.072-.134-.121-.145a.378.378,0,0,1-.322-.407l-.236-.035c-.06-.185-.045-.407-.278-.485-.023-.007-.03-.071-.039-.11a2.154,2.154,0,0,0-.044-.212c-.057-.166-.127-.327-.181-.494-.017-.05-.017-.15.008-.163a1.7,1.7,0,0,1,.467-.193c.222-.039.456-.006.678-.043.166-.028.344-.092.38-.3a.228.228,0,0,1,.045,0c.066.151.125.09.184,0l.232-.083c0,.276,0,.276.332.244C22.937,39.137,23.142,39.2,23.422,39.014Z"/><path class="cls-1" d="M30.927,42.026H30.7a.8.8,0,0,1-.043-.2c.008-.165-.071-.222-.223-.206l0-.231c.161,0,.2-.079.159-.224a1.237,1.237,0,0,1-.049-.312c0-.265.022-.532.009-.8-.006-.146-.114-.164-.232-.091l-.024-.512c.189-.009.368-.032.406-.269h.277l.012.268c.119,0,.217.006.315,0,.119-.008.239-.025.358-.041.135-.019.315.007.4-.07a.592.592,0,0,1,.5-.164.231.231,0,0,0,.272-.186c.043-.15.12-.261.289-.1.061-.4.187-.45.5-.241.026.017.054.028.081.044a.427.427,0,0,1,.075.688.341.341,0,0,0-.065.244c.229.142.142.338.114.526-.26.11-.294.181-.228.477l-.01.011a.826.826,0,0,0-.244-.024.205.205,0,0,0-.13.127c-.01.036.053.093.084.141l-.094.1-.2-.227c-.046.055-.126.105-.134.165-.028.209-.141.259-.332.2l-.05.207c-.334-.051-.348-.036-.351.292a.377.377,0,0,1-.048.141c-.139-.007-.264-.052-.333-.009a1.86,1.86,0,0,0-.313.314l-.224-.011L31.1,41.9Z"/><path class="cls-17" d="M24.062,44.107a.7.7,0,0,1-.2-.086c-.5-.451-.993-.9-1.483-1.363-.512-.48-1.037-.949-1.514-1.462a9.463,9.463,0,0,1-.7-1c-.178-.248-.374-.484-.561-.725l-.089.028c-.115.362-.221.727-.346,1.085-.11.318-.235.63-.361.941-.19.467-.41.923-.57,1.4a2.757,2.757,0,0,0-.115.856.7.7,0,0,0,.5.642c.539.219,1.088.413,1.632.618.105.039.208.084.312.126a7.913,7.913,0,0,1-2.1-.654,4.035,4.035,0,0,1-.882-.595.207.207,0,0,1-.063-.161c.028-.263.073-.524.1-.786a1.734,1.734,0,0,0-.013-.287h0L17.8,42.2l-.108-.028a8.672,8.672,0,0,1,1.6-2.527c.211-.219.427-.434.65-.64.047-.042.137-.037.207-.054l-.045.591-.141.115c.281.421.53.842.828,1.225a8.963,8.963,0,0,0,.8.822q1.047,1.029,2.1,2.052C23.807,43.874,23.936,43.989,24.062,44.107Z"/><path class="cls-2" d="M33.586,40.627c-.066-.3-.032-.367.228-.477.028-.188.115-.384-.114-.526a.341.341,0,0,1,.065-.244.427.427,0,0,0-.075-.688c-.027-.016-.055-.027-.081-.044-.308-.209-.434-.154-.5.241-.169-.159-.246-.048-.289.1a.231.231,0,0,1-.272.186.592.592,0,0,0-.5.164c-.081.077-.261.051-.4.07-.119.016-.239.033-.358.041-.1.007-.2,0-.315,0l-.012-.268.507-.032c.224-.06.45-.118.674-.179a1.4,1.4,0,0,1,.171-.061.654.654,0,0,0,.6-.518,2.623,2.623,0,0,1,1.367.261,1.245,1.245,0,0,1,.264.129.346.346,0,0,1,.122.4c-.027.091.062.216.1.326Z"/><path class="cls-2" d="M20.1,39.54l.045-.591.088-.013c.062.016.127.056.184.045.54-.1,1.079-.2,1.618-.3-.036.213-.214.277-.38.3-.222.037-.456,0-.678.043a1.7,1.7,0,0,0-.467.193c-.025.013-.025.113-.008.163.054.167.124.328.181.494a2.154,2.154,0,0,1,.044.212c.009.039.016.1.039.11.233.078.218.3.278.485l.236.035a.378.378,0,0,0,.322.407c.049.011.08.1.121.145s.09.146.146.156c.143.026.12.15.176.218a1.244,1.244,0,0,0,.544.455,3.528,3.528,0,0,0,.868-.049,3.277,3.277,0,0,1,.531.042c.03,0,.052.062.078.095-.4.042-.795.082-1.193.126a1.3,1.3,0,0,1-.217.037.476.476,0,0,1-.271-.069,15.749,15.749,0,0,1-1.3-1.291A16.551,16.551,0,0,1,20.1,39.54Z"/><path class="cls-8" d="M25.031,39.619c.006.19.021.38.015.569-.009.285-.032.57-.05.854,0,.038-.021.084-.006.112a.975.975,0,0,1,0,.75,5.434,5.434,0,0,0-.057.7c-.025.241-.063.482-.1.721a.158.158,0,0,1-.07.112c-.265.106-.533.2-.8.3l-.271-.2c.046-.043.087-.112.141-.124a5.358,5.358,0,0,0,.588-.113c.095-.033.156-.166.223-.259.006-.008-.056-.064-.087-.1l.018-.133c.028-.039.079-.077.08-.116.014-.485.022-.97.028-1.455,0-.014-.047-.029-.071-.043l.011-.092c.021-.009.059-.019.059-.028-.007-.216.209-.417.041-.647a.218.218,0,0,1,0-.177,1.011,1.011,0,0,0-.014-.738Z"/><path class="cls-8" d="M30.665,43.145c-.162-.045-.381-.041-.472-.147a1.079,1.079,0,0,1-.181-.545c-.063-.488-.1-.978-.146-1.468s-.091-.989-.14-1.483a.762.762,0,0,0-.047-.152l.349-.13c.008.107.014.194.021.28q.114,1.49.229,2.978c.016.2.175.251.322.291a3.013,3.013,0,0,0,.469.047Z"/><path class="cls-2" d="M31.426,42.06a1.86,1.86,0,0,1,.313-.314c.069-.043.194,0,.333.009a.377.377,0,0,0,.048-.141c0-.328.017-.343.351-.292l.05-.207c.191.06.3.01.332-.2.008-.06.088-.11.134-.165l.2.227c-.422.368-.831.753-1.275,1.092C31.815,42.148,31.593,42.068,31.426,42.06Z"/><path class="cls-9" d="M24.556,42.952c.031.034.093.09.087.1-.067.093-.128.226-.223.259a5.358,5.358,0,0,1-.588.113c-.054.012-.1.081-.141.124l-.424-.358A3.257,3.257,0,0,1,24.556,42.952Z"/><path class="cls-17" d="M24.343,42.534c-.229.062-.458.126-.688.184a1.769,1.769,0,0,0-.333.066.427.427,0,0,1-.63-.22l1.637-.14Z"/><path class="cls-28" d="M25.8,39.456c.348.028.7.065,1.043.081a4.025,4.025,0,0,0,.5-.04c.189-.015.38-.019.568-.046.276-.04.55-.1.827-.143.134-.021.271-.024.406-.035-.49.106-.975.246-1.47.311a7.462,7.462,0,0,1-1.82-.092C25.835,39.49,25.818,39.469,25.8,39.456Z"/><path class="cls-2" d="M30.314,39.966c.118-.073.226-.055.232.091.013.264-.011.531-.009.8a1.237,1.237,0,0,0,.049.312c.037.145,0,.226-.159.224-.038-.359-.079-.718-.112-1.078C30.3,40.2,30.314,40.081,30.314,39.966Z"/><path class="cls-17" d="M22.032,38.676c-.539.1-1.078.208-1.618.3-.057.011-.122-.029-.184-.045.469-.1.938-.2,1.408-.3.214-.045.428-.087.644-.121a1.021,1.021,0,0,1,.213.01l0,.063-.232.083-.184,0A.228.228,0,0,0,22.032,38.676Z"/><path class="cls-9" d="M24.708,39.523a1.011,1.011,0,0,1,.014.738.218.218,0,0,0,0,.177c.168.23-.048.431-.041.647,0,.009-.038.019-.059.028,0-.5-.007-1,0-1.505C24.618,39.579,24.676,39.551,24.708,39.523Z"/><path class="cls-2" d="M22.493,38.584l0-.063.927.493c-.28.186-.485.123-.6-.186C22.494,38.86,22.494,38.86,22.493,38.584Z"/><path class="cls-9" d="M24.611,41.205c.024.014.071.029.071.043-.006.485-.014.97-.028,1.455,0,.039-.052.077-.08.116,0-.506,0-1.013,0-1.519C24.571,41.268,24.6,41.237,24.611,41.205Z"/><path class="cls-2" d="M24.372,39.5a3.729,3.729,0,0,1-.638-.108c-.071-.023-.092-.193-.136-.3.217.085.436.163.648.257C24.3,39.377,24.331,39.45,24.372,39.5Z"/><path class="cls-17" d="M30.507,42.258l1.081.059.016.077a1.358,1.358,0,0,1-.317.05c-.217-.017-.432-.057-.647-.089-.049-.008-.1-.019-.144-.029Z"/><path class="cls-2" d="M30.7,39.185c-.038.237-.217.26-.406.269v-.269Z"/><path class="cls-2" d="M30.43,41.62c.152-.016.231.041.223.206a.8.8,0,0,0,.043.2h-.229Z"/><path class="cls-14" d="M31.225,42.71l-.644-.144.021-.1.643.139Z"/><path class="cls-2" d="M33.286,40.882c-.031-.048-.094-.1-.084-.141a.205.205,0,0,1,.13-.127.826.826,0,0,1,.244.024Z"/><path class="cls-2" d="M30.927,42.026,31.1,41.9l.106.152Z"/><path class="cls-17" d="M24.388,44.382c-.1,0-.211,0-.16-.156Z"/><path class="cls-17" d="M24.218,44.216l-.157-.11Z"/><path class="cls-5" d="M22.542,38.249l.155.09Z"/><path class="cls-6" d="M30.836,38.684l.137-.053-.045.086Z"/><path class="cls-28" d="M29.175,39.266l.052-.042Z"/><path class="cls-28" d="M29.318,39.2l.04-.027Z"/><path class="cls-5" d="M22.493,38.216l.052.035Z"/><path class="cls-26" d="M37.237,33.922a.2.2,0,0,0,.008-.041l.549-.88h0l.087-.183c.082-.1.2-.183.238-.295.06-.188.3-.3.229-.535l.045-.093.034-.049-.017-.012-.018.06-.047.091-.1-.285h0c.172-.238.425-.167.657-.174a2.162,2.162,0,0,0,.342-.006.748.748,0,0,0,.217-.125l.09,0,.094-.041.177-.015c.161.059.072-.078.1-.125l.649-.374c0,.035.012.078,0,.105-.111.192-.223.384-.348.567-.022.033-.107.031-.163.032-.174,0-.348-.005-.521-.006a.081.081,0,0,0-.056.035c-.133.215-.263.432-.4.649s-.28.455-.418.684c-.047.078-.086.16-.134.238-.091.148-.153.356-.287.429-.232.127-.288.463-.6.477-.011,0-.029.054-.026.081a.621.621,0,0,1-.4.582c-.281.146-.347.419-.5.632-.118.167-.374.215-.387.46l-.176-.021-.014.178a1.106,1.106,0,0,1-.167.265c-.253.223-.512.439-.781.642-.315.237-.644.457-.965.686-.15.108-.3.221-.443.331l0,0-.14.084a.779.779,0,0,1-.221.049.846.846,0,0,1-.22-.076c.036-.085.048-.2.111-.25.377-.285.767-.551,1.148-.831a4.841,4.841,0,0,0,.479-.389c.5-.476,1.015-.942,1.488-1.446a7.432,7.432,0,0,0,.638-.909Z"/><path class="cls-21" d="M36.138,35.957l.014-.178.176.021c.013-.245.269-.293.387-.46.151-.213.217-.486.5-.632a.621.621,0,0,0,.4-.582c0-.027.015-.081.026-.081.311-.014.367-.35.6-.477.134-.073.2-.281.287-.429.048-.078.087-.16.134-.238.138-.229.279-.456.418-.684s.262-.434.4-.649a.081.081,0,0,1,.056-.035c.173,0,.347.007.521.006.056,0,.141,0,.163-.032.125-.183.237-.375.348-.567.015-.027,0-.07,0-.105a2.75,2.75,0,0,1,.313-.333,2.133,2.133,0,0,0,.693-1.007l.1-.182h0c.188.1.172.236-.061.52l.105.311-.043.092c-.122.168-.251.332-.363.506a3.793,3.793,0,0,0-.188.371l0,.043-.091.093h0l-.183.278h0l-.276.369-.048.183c-.214.03-.247.2-.277.367h0c-.207.062-.268.256-.368.414h0l-.045.046c-.263.181-.531.355-.786.546-.152.114-.279.26-.423.385-.163.142-.339.271-.5.418-.271.25-.53.514-.8.765q-.45.419-.916.82A.974.974,0,0,1,36.138,35.957Z"/><path class="cls-25" d="M41.709,30.144l-.105-.311c.233-.284.249-.419.061-.52.048-.221.1-.443.142-.665.033-.161.059-.324.088-.487.016.137.024.275.05.41a1.385,1.385,0,0,0,.086.232Q41.869,29.474,41.709,30.144Z"/><path class="cls-25" d="M41.115,31.113a3.793,3.793,0,0,1,.188-.371c.112-.174.241-.338.363-.506A1.705,1.705,0,0,1,41.115,31.113Z"/><path class="cls-25" d="M39.867,32.861c.1-.158.161-.352.368-.414Z"/><path class="cls-25" d="M40.236,32.446c.03-.169.063-.337.277-.367Z"/><path class="cls-25" d="M40.561,31.9l.276-.369Z"/><path class="cls-25" d="M40.837,31.527l.183-.278Z"/><path class="cls-25" d="M41.021,31.249l.091-.093Z"/><path class="cls-21" d="M44.938,24.8l.047-.046Z"/><path class="cls-25" d="M39.822,32.908l.045-.046Z"/><path class="cls-29" d="M36.783,34.107c-.233.025-.3.144-.422.387a1.074,1.074,0,0,1-.441.375,1.417,1.417,0,0,0-.68.693c-.046.118-.129.1-.191.155-.237.192-.464.4-.713.573a7.511,7.511,0,0,1-.709.406c-.457.247-.918.487-1.374.736-.2.111-.39.257-.6.349-.364.158-.739.293-1.114.426-.422.149-.846.3-1.276.423-.412.121-.834.212-1.25.32-.168.043-.332.108-.5.14a4.112,4.112,0,0,1-.651.083,10.425,10.425,0,0,1-1.323-.008,1.745,1.745,0,0,1-.755-.212c-.31-.185-.675-.276-1-.44s-.6-.352-.894-.536a8.963,8.963,0,0,0-1.075-.669,5.744,5.744,0,0,1-1.051-.766,4.615,4.615,0,0,1-.529-.437c-.386-.379-.772-.759-1.132-1.162a4.033,4.033,0,0,1-.388-.624,2.725,2.725,0,0,1-.154-.251c-.295-.629-.6-1.253-.869-1.894a7.917,7.917,0,0,1-.265-.967c-.165-.6-.346-1.194-.5-1.8-.086-.345-.109-.706-.19-1.053a11.077,11.077,0,0,1-.288-2.026c-.019-.395-.084-.787-.14-1.179a.228.228,0,0,0-.125-.163c-.059-.011-.132.054-.2.086l-.027-.042.032-.145c.132.008.264.015.234-.183l.07-.056-.015-.015-.055.07-.239,0L16,24.522l.268-.062,0,.059-.01.02.011-.019.091-.089a.042.042,0,0,1,.038-.02.8.8,0,0,1,.051.152c.05.34.1.682.143,1.023a3.7,3.7,0,0,1,.085.647,14.037,14.037,0,0,0,.5,3.249c.143.734.422,1.44.6,2.17a6.733,6.733,0,0,0,.7,1.8,5.662,5.662,0,0,0,1.478,2.037,9.746,9.746,0,0,1,.8.762c.346.308.693.62,1.066.894a4.993,4.993,0,0,0,1.13.676c.457.178.859.493,1.309.7.168.076.272.221.47.273a4.7,4.7,0,0,0,1.624.268,8.459,8.459,0,0,0,1.8-.3q1.206-.369,2.393-.8c.509-.186,1-.429,1.494-.648.253-.112.507-.221.755-.343.208-.1.409-.22.612-.332a.649.649,0,0,0,.114-.073c.314-.269.63-.537.939-.812.1-.089.184-.2.319-.343a.97.97,0,0,0,.657-.728.831.831,0,0,0,.631-.5c.041-.075.132-.2.171-.188.188.048.234-.1.326-.19.141-.139.207-.375.476-.35l-.08-.169.824-1.515c.046-.069.182-.1.22-.174.108-.221.169-.465.262-.694.117-.289.144-.63.459-.806-.073.225-.146.449-.218.674s-.01.326.23.336a2.633,2.633,0,0,0,.386-.024,2.1,2.1,0,0,0,1.318-.663,1.413,1.413,0,0,1,.348-.188,2.272,2.272,0,0,1-2.337.941l-.052.166-.151.361h0c-.094.189-.178.384-.285.565-.292.5-.593.985-.891,1.477Z"/><path class="cls-25" d="M32.816,38.024c-.077.462-.2.58-.649.7-.28.071-.552.172-.83.246a1.733,1.733,0,0,1-.331.025l-.021-.058c.09-.058.177-.124.271-.174.438-.23.877-.458,1.319-.68a1.054,1.054,0,0,1,.242-.055Z"/><path class="cls-25" d="M37.069,33.742c.3-.492.6-.981.891-1.477.107-.181.191-.376.285-.565l.1.285,0,0c.07.238-.169.347-.229.535-.036.112-.156.2-.238.295L37.8,33h0a1.278,1.278,0,0,0-.16.142c-.165.2-.324.4-.486.6Zm1-1.208a.5.5,0,0,0,.012-.1.522.522,0,0,0-.09-.027Z"/><path class="cls-10" d="M37.148,33.742c.162-.2.321-.4.486-.6a1.278,1.278,0,0,1,.16-.142l-.549.88Z"/><path class="cls-6" d="M31.474,38.39l.461-.23a.481.481,0,0,1,.031.107C31.813,38.347,31.674,38.5,31.474,38.39Z"/><path class="cls-6" d="M31.008,38.62l.425-.22C31.375,38.633,31.2,38.633,31.008,38.62Z"/><path class="cls-10" d="M37.237,33.922l-.174.194Z"/><path class="cls-12" d="M33.64,37.968l.14-.084Z"/><path class="cls-25" d="M32.817,38.025l.01-.02-.011.019Z"/><path class="cls-27" d="M14.576,27.239v-.183l.016-.144.028-.317.1-.132a1.956,1.956,0,0,0,.822.806l.3-.392.39,2.9c-.043.025-.1.081-.128.07-.288-.09-.572-.193-.663-.532a.307.307,0,0,0-.031-.105c-.139-.181-.282-.359-.424-.538h0a1.462,1.462,0,0,0-.032-.249,2.424,2.424,0,0,1-.214-.8C14.737,27.506,14.788,27.3,14.576,27.239Z"/><path class="cls-26" d="M15.99,24.888l-.032.145a.468.468,0,0,0-.054.113c-.051.321-.083.646-.15.963-.058.277-.153.545-.232.817l-.094.02a6.181,6.181,0,0,1-.4-.53A3.937,3.937,0,0,1,14.8,25.9l-.041-.092a4.005,4.005,0,0,0-.106-.624A.279.279,0,0,1,14.8,24.8l.09,0,.236-.086a.184.184,0,0,0,.041,0l.327-.088.18-.011c.167-.044.227.081.3.189Z"/><path class="cls-8" d="M14.979,28.668c.142.179.285.357.424.538a.307.307,0,0,1,.031.105c.091.339.375.442.663.532.032.011.085-.045.128-.07l.1.449a1.525,1.525,0,0,1-.938-.563,3.818,3.818,0,0,1-.8-1.71,3.362,3.362,0,0,1-.008-.71c.212.057.161.267.158.381a2.424,2.424,0,0,0,.214.8,1.462,1.462,0,0,1,.032.249l-.011.02Z"/><path class="cls-28" d="M16.035,26.117c.06.528.117,1.056.181,1.583.076.619.158,1.237.239,1.855.027.211.062.42.093.63a6.367,6.367,0,0,1-.271-.869c-.139-.813-.262-1.63-.353-2.45A2.9,2.9,0,0,1,16.035,26.117Z"/><path class="cls-10" d="M14.8,25.9a3.937,3.937,0,0,0,.229.517,6.181,6.181,0,0,0,.4.53l.094-.02c.079-.272.174-.54.232-.817.067-.317.1-.642.15-.963a.468.468,0,0,1,.054-.113l.027.042-.032.3v.144a.254.254,0,0,1,.016.028l-.009.015a3.72,3.72,0,0,1-.367,1.393c-.09.179-.192.209-.33.061a.9.9,0,0,1-.206-.271c-.09-.246-.392-.4-.306-.72A.971.971,0,0,1,14.8,25.9Z"/><path class="cls-8" d="M14.717,26.463l-.1.132v-.274l.057-.006Z"/><path class="cls-15" d="M16.039,30.42c.062-.126.123-.125.186,0l0,0h-.184Z"/><path class="cls-8" d="M14.592,26.912l-.016.144Z"/><path class="cls-10" d="M14.521,26.087l.084-.1Z"/><path class="cls-10" d="M14.746,28.9l-.044-.053Z"/><path class="cls-6" d="M23.31,45.489c0-.122.011-.245.005-.367-.018-.337.043-.458.379-.628-.049.091-.133.18-.14.274-.017.235.015.473,0,.709-.056.95-.14,1.9-.182,2.85-.049,1.105-.066,2.212-.094,3.318-.006.23,0,.459,0,.684l.185.089-.177.115-.031.046c-.2-.046-.288.008-.269.192a2.974,2.974,0,0,0,.1.347c.037.166.155.114.265.128.067.008.124.095.234.186l-.316-.041c.37.349.168.754.3,1.147.033-.054.09-.106.093-.161,0-.136-.021-.274-.021-.411,0-.159-.04-.324.105-.462.047-.044.024-.161.033-.253.2-.018.253-.08.2-.3a7.248,7.248,0,0,1-.2-.821,7.463,7.463,0,0,1-.01-.9c0-.717-.008-1.434.015-2.15.025-.749.08-1.5.128-2.243.024-.372.074-.743.085-1.114.006-.207.064-.344.278-.4v.5c-.028.278-.068.556-.082.834-.057,1.114-.118,2.229-.153,3.344-.023.7-.007,1.408,0,2.112a.983.983,0,0,0,.083.273c.122.364.257.723-.067,1.065-.245.26-.135.592-.154.9a.53.53,0,0,1-.112.3c-.057.067-.208.14-.256.11a.929.929,0,0,1-.293-.317.487.487,0,0,1-.006-.272.875.875,0,0,0-.25-.718,1.532,1.532,0,0,1-.26-.66.4.4,0,0,1,.12-.347c.251-.144.158-.341.161-.544.018-1.2.035-2.391.083-3.585.033-.816.116-1.631.171-2.446,0-.055-.042-.112-.065-.168Z"/><path class="cls-13" d="M18.664,45.271h-.48l-.017-.062.314-.094.36-.041.026.063Z"/><path class="cls-17" d="M17.606,42.68l-.018-.019.019.018Z"/><path class="cls-4" d="M32.448,45.268c-.164.059-.325.127-.493.175a.936.936,0,0,1-.248,0Z"/><path class="cls-25" d="M16.041,30.421h.182c.278.165.256.453.331.77A1.41,1.41,0,0,1,16.041,30.421Z"/><path class="cls-23" d="M14.516,25.215v0Z"/><path class="cls-6" d="M24.729,45.915a3.408,3.408,0,0,1,.975.057,1.8,1.8,0,0,0,.584-.038l.27-.024-.006.083a2.461,2.461,0,0,1-.529.232,1.131,1.131,0,0,1-.461-.074C25.283,46.079,25.007,45.994,24.729,45.915Z"/><path class="cls-6" d="M19.462,52.193c.057-.087.16-.172.164-.262.019-.348.006-.7,0-1.048l.019-.227.06,0c.019.343.024.688.062,1.029a.679.679,0,0,1-.283.671c-.163.124-.312.265-.468.4h-.157Z"/><path class="cls-14" d="M18.153,45.8l.347-.273Z"/><path class="cls-19" d="M18.863,52.75h.157l.09.214L19.027,53Z"/><path class="cls-7" d="M16.577,48.016l.136-.251C16.724,47.88,16.736,47.994,16.577,48.016Z"/><path class="cls-14" d="M17.918,46.056l.136-.154Z"/><path class="cls-7" d="M16.844,47.473l.1-.173C16.912,47.357,16.878,47.415,16.844,47.473Z"/><path class="cls-14" d="M18.061,45.894l.084-.087Z"/><path class="cls-14" d="M17.74,46.258l.081-.079Z"/><path class="cls-7" d="M16.78,47.607l.042-.084Z"/><path class="cls-14" d="M17.7,46.308l.026-.034Z"/><path class="cls-14" d="M17.844,46.144l.042-.049Z"/><path class="cls-7" d="M16.75,47.651l.024-.034A.043.043,0,0,1,16.75,47.651Z"/><path class="cls-4" d="M38.917,49.075c-.143-.117-.16-.217-.051-.314Z"/><path class="cls-5" d="M34.74,51.481c-.04.088-.075.179-.121.264-.082.148-.03.224.124.252h0l.1.091.807.542-.019.047a.835.835,0,0,1-.216-.065c-.288-.185-.578-.368-.848-.577a.337.337,0,0,1-.058-.293,2.112,2.112,0,0,1,.232-.407Z"/><path class="cls-4" d="M37.608,46.437l.246.333C37.621,46.77,37.553,46.649,37.608,46.437Z"/><path class="cls-4" d="M37.938,46.867l.1.185Z"/><path class="cls-4" d="M37.852,46.768l.089.1Z"/><path class="cls-19" d="M34.842,52.087l-.1-.091Z"/><path class="cls-18" d="M36.877,45.491l-.048-.056Z"/><path class="cls-23" d="M35.95,19.91l-.046.047a2.279,2.279,0,0,0-.269.42.859.859,0,0,0-.041.454,10.509,10.509,0,0,0,.317,1.214c.208.616.451,1.22.679,1.829l-.082.351a12.579,12.579,0,0,1-1.191-3.373l-1.131.946-.32.292.055.111a.85.85,0,0,0-.222.031c-.578.245-1.142.53-1.734.735a4.131,4.131,0,0,1-1.673.358c-.125-.009-.175-.029-.2-.173a.734.734,0,0,1,.149-.568l.277-.049c-.037.082-.078.162-.11.246-.022.06-.064.147-.04.181a.242.242,0,0,0,.187.083,2.98,2.98,0,0,0,.531-.1q.552-.167,1.1-.361a11.413,11.413,0,0,0,1.208-.473,2.809,2.809,0,0,0,.544-.469c.032-.029.069-.052.1-.079.376-.317.775-.611,1.118-.96a6.285,6.285,0,0,0,.608-.856,3.646,3.646,0,0,1,.294-.408,2.529,2.529,0,0,1,.338-.267l.041.045-.345.605Z"/><path class="cls-24" d="M36.59,23.874c-.228-.609-.471-1.213-.679-1.829a10.509,10.509,0,0,1-.317-1.214.859.859,0,0,1,.041-.454,2.279,2.279,0,0,1,.269-.42,2.054,2.054,0,0,0,.184.909c.1.31.152.639.234.957.035.137.1.266.143.4.092.32.157.648.269.96a4.573,4.573,0,0,0,.313.562c.056.1.085.223.144.325.2.346.41.684.6,1.031a2.588,2.588,0,0,1,.134.364c.041.111.086.221.127.332.022.061.041.124.061.187L37.9,25.86a.629.629,0,0,1-.112-.106Q37.186,24.815,36.59,23.874Z"/><path class="cls-15" d="M30.514,22.535l-.277.049-1.316.172a4.311,4.311,0,0,1,.122-.417.223.223,0,0,1,.134-.12c.457-.1.915-.189,1.373-.282l.229,0C30.691,22.133,30.6,22.334,30.514,22.535Z"/><path class="cls-23" d="M37.9,25.86l.222.127L38.2,26a2.014,2.014,0,0,0,.285.24.547.547,0,0,0,.644-.149h0a1.6,1.6,0,0,0,.83-.554h0l.231-.182h0l.368-.276h0c.142.052.295-.236.435.022l-.117.158h0l-.233.182-.089.09a1.246,1.246,0,0,0-.2.1c-.348.242-.694.489-1.04.735a1.02,1.02,0,0,1-.918,0l-.644-.379Z"/><path class="cls-25" d="M23.178,16.869a2,2,0,0,1-.257.932c-.2.362-.309.781-.52,1.138a5.662,5.662,0,0,1-1.618,1.926c-.1.069-.21.135-.315.2a.215.215,0,0,1,.136-.25,2.446,2.446,0,0,0,.44-.352,5.107,5.107,0,0,0,.437-.407,4.215,4.215,0,0,0,.31-.423c.193-.275.4-.544.573-.829a3.077,3.077,0,0,0,.215-.5c.161-.406.317-.814.479-1.219A1.946,1.946,0,0,1,23.178,16.869Z"/><path class="cls-25" d="M26.873,20.651a4.418,4.418,0,0,1-.581.843,4.525,4.525,0,0,1-1.075.715,3.638,3.638,0,0,1-.879.193c.02-.029.037-.082.06-.085a3.761,3.761,0,0,0,1.648-.841,3.137,3.137,0,0,0,.666-.732A.516.516,0,0,1,26.873,20.651Z"/><path class="cls-25" d="M28.393,17.7c-.081.237-.147.479-.246.708-.183.424-.377.845-.582,1.259a2.693,2.693,0,0,1-.278.384,2.471,2.471,0,0,1,.079-.253q.256-.588.52-1.171c.1-.215.2-.428.309-.637A2.914,2.914,0,0,1,28.393,17.7Z"/><path class="cls-25" d="M24.337,22.4a1.8,1.8,0,0,1-1.016.16,1.355,1.355,0,0,1-.309-.075c-.064-.032-.1-.117-.153-.178a7.139,7.139,0,0,0,.859.173A2.887,2.887,0,0,0,24.337,22.4Z"/><path class="cls-10" d="M23.734,14.936l.209-.707.073.005.045.546-.088-.042Z"/><path class="cls-25" d="M20.468,21.067l-.555.506,0,0,0-.182C20.09,21.268,20.212,21.052,20.468,21.067Z"/><path class="cls-25" d="M28.752,16.682l-.312.835a4.585,4.585,0,0,1,.094-.612C28.559,16.817,28.677,16.755,28.752,16.682Z"/><path class="cls-25" d="M39.133,26.09a.547.547,0,0,1-.644.149A2.014,2.014,0,0,1,38.2,26l.143,0c.181.156.361.294.607.105C38.994,26.071,39.073,26.092,39.133,26.09Z"/><path class="cls-25" d="M19.913,21.573l-.552.369.182-.279h.045l.321-.094Z"/><path class="cls-25" d="M27.287,20.051l-.414.6A.748.748,0,0,1,27.287,20.051Z"/><path class="cls-24" d="M14.212,12.9l.107.33c-.041.009-.1.041-.12.025a.245.245,0,0,1-.077-.329Z"/><path class="cls-22" d="M19.909,21.568l-.321.094c.056-.273.133-.339.324-.276Z"/><path class="cls-24" d="M14.046,14.245l.1.24C13.951,14.481,13.946,14.472,14.046,14.245Z"/><path class="cls-22" d="M17.853,22.27l-.139-.091.038-.057.156.1Z"/><path class="cls-10" d="M16.085,12.075l.139-.23h0l-.138.231Z"/><path class="cls-24" d="M35.95,19.91l.135-.189Z"/><path class="cls-24" d="M13.9,14.773v.133l-.041.006-.021-.135Z"/><path class="cls-25" d="M23.222,16.682l-.041.094Z"/><path class="cls-24" d="M14.254,14.087c-.013-.006-.033-.008-.037-.018s.009-.024.015-.037c.012.005.032.008.036.017S14.259,14.074,14.254,14.087Z"/><path class="cls-24" d="M14.045,13.939l.038.016c-.005.013-.008.033-.017.036s-.025-.009-.038-.014Z"/><path class="cls-10" d="M16.224,11.845l.06-.066.019.03-.079.036Z"/><path class="cls-25" d="M28.434,17.606l-.038.052Z"/><path class="cls-25" d="M22.857,22.265l0-.051Z"/><path class="cls-23" d="M38.391,31.339l.052-.166a2.272,2.272,0,0,0,2.337-.941l.052-.057a1.108,1.108,0,0,0,.418-.632l.095-.183.089-.185.044-.092.077-.279c.006-.4.017-.8.015-1.2a1.962,1.962,0,0,0-.389-1.167c-.241.308-.463.636-.732.92a1.426,1.426,0,0,1-1.087.581l-.18-.011c-.005-.053.01-.12-.017-.157-.174-.234-.057-.371.149-.483l0,.161c.006.23.157.339.338.207A8.559,8.559,0,0,0,40.4,27a1.278,1.278,0,0,0,.164-.214c.138-.2.276-.393.408-.593.113-.17.217-.347.325-.52l.19-.049-.008.092c-.226.345-.217.524.039.746l.008.084.045.047h0l.136.232.049.182.136,1.014v.138c-.029.163-.055.326-.088.487-.045.222-.094.444-.142.665h0l-.1.182a2.133,2.133,0,0,1-.693,1.007,2.75,2.75,0,0,0-.313.333l-.649.374-.1.125-.177.015-.094.041-.09,0A1.636,1.636,0,0,1,38.391,31.339Z"/><path class="cls-26" d="M41.3,25.675c-.108.173-.212.35-.325.52-.132.2-.27.4-.408.593A1.278,1.278,0,0,1,40.4,27a8.559,8.559,0,0,1-.747.655c-.181.132-.332.023-.338-.207l0-.161,0-.005.015-.01a.138.138,0,0,0-.008-.027l-.008-.889c.346-.246.692-.493,1.04-.735a1.246,1.246,0,0,1,.2-.1l-.2.3.405.145c.2.068.242-.114.325-.216.012-.014-.1-.127-.18-.23l.138-.179.248.274Zm-.618.829.117-.256a1.267,1.267,0,0,1-.355-.124c-.231-.178-.409-.056-.571.029.116.063.234.128.354.19a.848.848,0,0,0,.087.021C40.423,26.4,40.531,26.447,40.681,26.5Z"/><path class="cls-20" d="M43.694,22.676l-.03.18-.095,0c-.019-.163-.094-.347-.043-.484.1-.26-.059-.438-.153-.619a.546.546,0,0,1-.1-.461,1.1,1.1,0,0,0,.007-.32c0-.372,0-.375.4-.3a4.2,4.2,0,0,1,.055.482c0,.084-.075.165-.091.251a1.867,1.867,0,0,0-.035.38c.005.206.026.411.04.617C43.6,22.5,43.532,22.609,43.694,22.676Z"/><path class="cls-20" d="M43.877,23.311a.4.4,0,0,1,0,.135.676.676,0,0,1-.088.141c-.041-.035-.1-.063-.12-.108a.583.583,0,0,1-.057-.262.635.635,0,0,1,.109-.211,2.206,2.206,0,0,1,.157.193C43.892,23.226,43.877,23.273,43.877,23.311Z"/><path class="cls-25" d="M39.963,25.536a1.6,1.6,0,0,1-.83.554A2.713,2.713,0,0,1,39.963,25.536Z"/><path class="cls-25" d="M40.881,25.256,41,25.1c-.14-.258-.293.03-.435-.022.041-.185.184-.209.331-.18a.249.249,0,0,1,.161.146C41.1,25.177,41.061,25.284,40.881,25.256Z"/><path class="cls-25" d="M41.52,26.464c-.256-.222-.265-.4-.039-.746a.441.441,0,0,1,0,.14c-.048.168-.1.331.046.483C41.549,26.36,41.524,26.422,41.52,26.464Z"/><path class="cls-25" d="M41.894,28.023l-.136-1.014a.532.532,0,0,1,.086.155c.039.23.07.462.094.693A.471.471,0,0,1,41.894,28.023Z"/><path class="cls-25" d="M40.563,25.077l-.368.276Z"/><path class="cls-20" d="M43.072,19.337l.017.294C42.884,19.536,42.88,19.51,43.072,19.337Z"/><path class="cls-20" d="M43.228,18.143l-.026.241-.091-.007.015-.245Z"/><path class="cls-25" d="M41.3,25.675l0-.049c.019-.253.189-.025.281-.068l-.089.068Z"/><path class="cls-24" d="M43.694,22.676c-.162-.067-.1-.173-.046-.276Z"/><path class="cls-25" d="M40.647,25.438l.233-.182C40.9,25.443,40.775,25.442,40.647,25.438Z"/><path class="cls-25" d="M41.709,26.827l-.136-.232C41.677,26.638,41.821,26.657,41.709,26.827Z"/><path class="cls-25" d="M40.194,25.354l-.231.182Z"/><path class="cls-20" d="M42.658,18.431l-.072-.138.06-.036.086.127Z"/><path class="cls-24" d="M43.533,19.147V18.97h.045v.177Z"/><path class="cls-26" d="M40.764,25.816c-.027-.033-.057-.054-.055-.071a.086.086,0,0,1,.048-.06c.015,0,.057.026.057.041S40.79,25.774,40.764,25.816Z"/><path class="cls-25" d="M41.573,26.6l-.045-.047Z"/><path class="cls-25" d="M16.4,24.145l-.088.006-.139.089-.136.006-.143.085-.089,0-.273,0,0,0c.088-.06.177-.171.265-.17.356,0,.563-.243.819-.42.36-.249.738-.474,1.112-.705.109-.067.227-.118.342-.176l-1.014.742-.093.085h0l-.231.182h0l-.137.091h0l-.093.09h0Z"/><path class="cls-25" d="M19.129,22.129c-.264.2-.525.4-.793.6a2.018,2.018,0,0,1-.265.139c.011-.153.088-.211.239-.271a3.661,3.661,0,0,0,.553-.381A1.073,1.073,0,0,1,19.129,22.129Z"/><path class="cls-20" d="M13.942,19.141v-.672h.046v.672Z"/><path class="cls-25" d="M19.361,21.942l-.189.178C19.156,21.977,19.218,21.916,19.361,21.942Z"/><path class="cls-25" d="M13.063,23.741c-.026-.032-.056-.053-.054-.07a.084.084,0,0,1,.047-.059c.016,0,.057.025.058.04S13.089,23.7,13.063,23.741Z"/><path class="cls-27" d="M37.9,25.86l-.142.117.644.379c-.012.043-.022.087-.035.13-.066.23-.307.352-.341.615a3.99,3.99,0,0,1-.215.837c-.148.413-.331.814-.489,1.223-.076.2-.109.414-.2.6-.179.389-.393.76-.569,1.149-.107.235-.166.492-.254.736a1.249,1.249,0,0,1-.12.221,3.849,3.849,0,0,0-.274.449,11.273,11.273,0,0,1-1.116,1.849,6.909,6.909,0,0,1-.527.716,3.532,3.532,0,0,1-.6.512c-.357.252-.731.481-1.1.72-.012.008-.029.007-.043.013-.18.079-.367.144-.537.24-.4.229-.8.472-1.2.709-.071.043-.142.086-.216.123a7.619,7.619,0,0,1-1.187.574,14.328,14.328,0,0,1-1.961.415,9.116,9.116,0,0,1-1.609.1,3.412,3.412,0,0,1-.991-.237,16.254,16.254,0,0,1-1.615-.636,9.811,9.811,0,0,1-1.185-.715c-.116-.075-.178-.226-.282-.324-.376-.354-.787-.674-1.13-1.056a11.745,11.745,0,0,1-1.074-1.389,12.884,12.884,0,0,1-.737-1.365,9.061,9.061,0,0,1-.576-1.282c-.181-.578-.275-1.183-.423-1.772a14.864,14.864,0,0,1-.425-3.19c-.007-.251-.041-.5-.054-.753-.024-.456-.039-.913-.062-1.368-.006-.119.037-.276-.166-.283.5-.361.992-.726,1.493-1.082.432-.306.871-.6,1.31-.9a1.11,1.11,0,0,1,.246-.09c.012.009.023.025.036.028l2.226.467.02.008.021,0,.045.008c.228.441.671.471,1.07.489a3.932,3.932,0,0,0,.952-.183c.118-.025.234-.056.352-.077a3.965,3.965,0,0,0,1.742-1.034,4.59,4.59,0,0,0,.73-1.041,12.88,12.88,0,0,0,1.614-3.654c.046-.153.1-.3.149-.449.256.56.528,1.119.767,1.691.268.64.528,1.285.744,1.943a2.442,2.442,0,0,1,.05.839c-.016.354-.071.7-.109,1.058-.458.093-.916.182-1.373.282a.223.223,0,0,0-.134.12,4.311,4.311,0,0,0-.122.417l1.316-.172a.734.734,0,0,0-.149.568c.029.144.079.164.2.173a4.131,4.131,0,0,0,1.673-.358c.592-.2,1.156-.49,1.734-.735a.85.85,0,0,1,.222-.031h.988c-.046-.027-.1-.063-.161-.095-.187-.1-.375-.206-.562-.308l1.131-.946a12.579,12.579,0,0,0,1.191,3.373l.082-.351q.6.941,1.194,1.88A.629.629,0,0,0,37.9,25.86Zm-14.482-.234c.262-.008.34-.086.26-.286a3.2,3.2,0,0,0-.865-1.346,2.628,2.628,0,0,0-2.311-.6,4.425,4.425,0,0,0-2.209,1.3c.211.383.412.764.631,1.136.076.128.193.241.366.112a.3.3,0,0,0,.247.155,5.548,5.548,0,0,1,.98.2.434.434,0,0,0,.431-.077,1.464,1.464,0,0,0,1.041-.082,1.051,1.051,0,0,0,.253.094.663.663,0,0,0,.242-.052,3.077,3.077,0,0,0,.592-.2A1.643,1.643,0,0,0,23.414,25.626Zm9.977.916c.118-.038.275-.042.348-.121.317-.347.609-.715.915-1.082-.142-.12-.254-.221-.373-.315A5.186,5.186,0,0,0,31.8,23.8a2.992,2.992,0,0,0-2.168.461,3.534,3.534,0,0,0-.968,1.049,2.046,2.046,0,0,0-.164.434.761.761,0,0,0,.116.028c.077,0,.153,0,.23,0a.725.725,0,0,0,.522.589c.3.078.579.2.874.277.076.021.178-.052.267-.082a1.631,1.631,0,0,0,.923.055c.056.037.114.108.169.1.2-.009.407-.046.61-.065C32.606,26.607,33,26.576,33.391,26.542ZM28.15,33.7c-.192-.054-.388-.1-.575-.166a5.569,5.569,0,0,0-.652-.265,2.243,2.243,0,0,0-.838-.077,1.4,1.4,0,0,1-.894-.048.633.633,0,0,0-.2-.032,2.505,2.505,0,0,0-1.178.3c-.11.042-.228.064-.34.1-.093.033-.256.072-.26.119a.259.259,0,0,0,.217.291.775.775,0,0,0,.524-.07,2.147,2.147,0,0,1,1.349-.113,1.121,1.121,0,0,0,.445.069A3,3,0,0,1,27.615,34C27.942,34.144,28.066,34.06,28.15,33.7Zm-1.492-4.115c-.123-.1-.121-.361-.376-.223a.892.892,0,0,1-.983-.047.159.159,0,0,0-.261.052c-.063.1-.108.185.03.289A1.254,1.254,0,0,0,26.658,29.588Z"/><path class="cls-28" d="M17.092,23.918c.2.007.16.164.166.283.023.455.038.912.062,1.368.013.251.047.5.054.753a14.864,14.864,0,0,0,.425,3.19c.148.589.242,1.194.423,1.772a9.061,9.061,0,0,0,.576,1.282,12.884,12.884,0,0,0,.737,1.365,11.745,11.745,0,0,0,1.074,1.389c.343.382.754.7,1.13,1.056.1.1.166.249.282.324a9.811,9.811,0,0,0,1.185.715,16.254,16.254,0,0,0,1.615.636,3.412,3.412,0,0,0,.991.237,9.116,9.116,0,0,0,1.609-.1,14.328,14.328,0,0,0,1.961-.415,7.619,7.619,0,0,0,1.187-.574c.074-.037.145-.08.216-.123.4-.237.794-.48,1.2-.709.17-.1.357-.161.537-.24.014-.006.031-.005.043-.013.368-.239.742-.468,1.1-.72a3.532,3.532,0,0,0,.6-.512,6.909,6.909,0,0,0,.527-.716A11.273,11.273,0,0,0,35.9,32.321a3.849,3.849,0,0,1,.274-.449,1.249,1.249,0,0,0,.12-.221c.088-.244.147-.5.254-.736.176-.389.39-.76.569-1.149.088-.191.121-.407.2-.6.158-.409.341-.81.489-1.223a3.99,3.99,0,0,0,.215-.837c.034-.263.275-.385.341-.615.013-.043.023-.087.035-.13a1.02,1.02,0,0,0,.918,0l.008.889a.059.059,0,0,0-.007.037l0,.005c-.206.112-.323.249-.149.483.027.037.012.1.017.157-.16-.058-.252-.024-.238.169a.3.3,0,0,1-.034.131c-.123.273-.244.546-.376.814-.093.189-.217.362-.3.554a4.459,4.459,0,0,1-.581,1.048c-.175.221-.228.556-.448.784a4.468,4.468,0,0,0-.306.405,2.028,2.028,0,0,0-.233.443c-.113.408-.5.665-.568,1.095-.009.06-.075.113-.12.165-.292.331-.589.658-.878.991a7.65,7.65,0,0,1-.558.666,9.056,9.056,0,0,1-.948.739c-.592.411-1.2.793-1.794,1.206a7.358,7.358,0,0,1-1.674.735,15.347,15.347,0,0,1-1.48.44c-.566.153-1.131.319-1.707.423a4.8,4.8,0,0,1-1.221.051,3.548,3.548,0,0,1-.91-.257c-.27-.1-.517-.263-.788-.355-.464-.158-.882-.414-1.326-.613a5.236,5.236,0,0,1-1.156-.846c-.477-.4-.9-.861-1.4-1.236a4.018,4.018,0,0,1-.957-1.148,9.251,9.251,0,0,1-1.237-2.769c-.151-.649-.345-1.288-.5-1.936-.129-.54-.247-1.085-.341-1.632-.09-.525-.144-1.056-.211-1.585-.071-.566-.158-1.132-.2-1.7-.011-.169.007-.31-.15-.409Z"/><path class="cls-8" d="M16.547,24.3c.157.1.139.24.15.409.038.569.125,1.135.2,1.7.067.529.121,1.06.211,1.585.094.547.212,1.092.341,1.632.155.648.349,1.287.5,1.936a9.251,9.251,0,0,0,1.237,2.769,4.018,4.018,0,0,0,.957,1.148c.5.375.922.836,1.4,1.236a5.236,5.236,0,0,0,1.156.846c.444.2.862.455,1.326.613.271.092.518.256.788.355a3.548,3.548,0,0,0,.91.257,4.8,4.8,0,0,0,1.221-.051c.576-.1,1.141-.27,1.707-.423a15.347,15.347,0,0,0,1.48-.44,7.358,7.358,0,0,0,1.674-.735c.59-.413,1.2-.8,1.794-1.206a9.056,9.056,0,0,0,.948-.739,7.65,7.65,0,0,0,.558-.666c.289-.333.586-.66.878-.991.045-.052.111-.1.12-.165.065-.43.455-.687.568-1.095a2.028,2.028,0,0,1,.233-.443,4.468,4.468,0,0,1,.306-.405c.22-.228.273-.563.448-.784a4.459,4.459,0,0,0,.581-1.048c.083-.192.207-.365.3-.554.132-.268.253-.541.376-.814a.3.3,0,0,0,.034-.131c-.014-.193.078-.227.238-.169l.18.011-.234.865-.089.325-.269.245.131.123-.046.184c-.157.1-.166.138-.048.23l-.091.185c-.315.176-.342.517-.459.806-.093.229-.154.473-.262.694-.038.077-.174.105-.22.174l-.824,1.515.08.169c-.269-.025-.335.211-.476.35-.092.091-.138.238-.326.19-.039-.01-.13.113-.171.188a.831.831,0,0,1-.631.5.97.97,0,0,1-.657.728c-.135.147-.219.254-.319.343-.309.275-.625.543-.939.812a.649.649,0,0,1-.114.073c-.2.112-.4.23-.612.332-.248.122-.5.231-.755.343-.5.219-.985.462-1.494.648q-1.185.432-2.393.8a8.459,8.459,0,0,1-1.8.3,4.7,4.7,0,0,1-1.624-.268c-.2-.052-.3-.2-.47-.273-.45-.2-.852-.517-1.309-.7a4.993,4.993,0,0,1-1.13-.676c-.373-.274-.72-.586-1.066-.894a9.746,9.746,0,0,0-.8-.762,5.662,5.662,0,0,1-1.478-2.037,6.733,6.733,0,0,1-.7-1.8c-.174-.73-.453-1.436-.6-2.17a14.037,14.037,0,0,1-.5-3.249,3.7,3.7,0,0,0-.085-.647c-.047-.341-.093-.683-.143-1.023a.8.8,0,0,0-.051-.152Z"/><path class="cls-27" d="M20.562,21.43a8.554,8.554,0,0,1,.681-.6,4.236,4.236,0,0,0,1.014-1.191c.231-.345.413-.724.615-1.088a.554.554,0,0,1,.15-.2c-.007.149-.026.3-.021.448.019.633.09,1.269.052,1.9a2.235,2.235,0,0,1-.326,1.224Z"/><path class="cls-15" d="M20.562,21.43l2.165.5-.238.427-.045-.008-.041,0-2.226-.467c-.013,0-.024-.019-.036-.028Z"/><path class="cls-10" d="M15.97,24.8c-.072-.108-.132-.233-.3-.189L16,24.522l-.012.184Z"/><path class="cls-10" d="M15.491,24.617l-.327.088Z"/><path class="cls-10" d="M15.161,24.517l.325-.089Z"/><path class="cls-10" d="M15.535,24.339l.273,0-.321.091Z"/><path class="cls-10" d="M14.748,24.609l.277-.087Z"/><path class="cls-10" d="M16.731,23.874l.231-.182C16.973,23.864,16.863,23.883,16.731,23.874Z"/><path class="cls-10" d="M15.123,24.709l-.236.086Z"/><path class="cls-10" d="M15.9,24.331l.143-.085Z"/><path class="cls-10" d="M16.593,23.966l.137-.091Z"/><path class="cls-10" d="M16.176,24.24l.139-.089Z"/><path class="cls-10" d="M16.4,24.145l.1-.087Z"/><path class="cls-10" d="M16.5,24.057l.093-.09Z"/><path class="cls-10" d="M16.963,23.691l.093-.085Z"/><path class="cls-8" d="M16.27,24.519l0-.059.1-.029-.091.089Z"/><path class="cls-10" d="M13.136,16.731l.01-.02-.011.019Z"/><path class="cls-6" d="M23.286,52.533l.023.065-.054-.019Z"/><path class="cls-5" d="M15.952,25.515v0Z"/><path class="cls-2" d="M22.077,38.672l.184,0C22.2,38.762,22.143,38.823,22.077,38.672Z"/><path class="cls-25" d="M38.391,31.339a1.636,1.636,0,0,0,1.065.056.748.748,0,0,1-.217.125,2.162,2.162,0,0,1-.342.006c-.232.007-.485-.064-.657.174Z"/><path class="cls-21" d="M39.817,31.334l.1-.125C39.889,31.256,39.978,31.393,39.817,31.334Z"/><path class="cls-10" d="M37.8,33l.087-.183Z"/><path class="cls-25" d="M39.546,31.39l.094-.041Z"/><path class="cls-25" d="M38.393,31.894l.018-.06.017.012-.034.049Z"/><path class="cls-25" d="M38.394,31.9l-.045.093,0,0,.047-.091Z"/><path class="cls-25" d="M41.569,29.5l.1-.182Z"/><path class="cls-27" d="M38.855,29.682,38.9,29.5l.138-.368.089-.325.234-.865a1.426,1.426,0,0,0,1.087-.581c.269-.284.491-.612.732-.92a1.962,1.962,0,0,1,.389,1.167c0,.4-.009.8-.015,1.2-.157.057-.145.16-.077.279l-.044.092c-.107.024-.188.061-.089.185l-.095.183a.984.984,0,0,0-.418.632l-.052.057a1.413,1.413,0,0,0-.348.188,2.1,2.1,0,0,1-1.318.663,2.633,2.633,0,0,1-.386.024c-.24-.01-.3-.109-.23-.336s.145-.449.218-.674l.091-.185Z"/><path class="cls-9" d="M15.97,24.8l.015-.089.239,0h0c.03.2-.1.191-.234.183Z"/><path class="cls-9" d="M16.224,24.7l.055-.07.015.015-.07.056Z"/><path class="cls-9" d="M16.271,24.52l-.011.019.01-.02Z"/><path class="cls-26" d="M38.066,32.534l-.078-.128a.522.522,0,0,1,.09.027A.5.5,0,0,1,38.066,32.534Z"/><path class="cls-27" d="M14.979,28.668l-.01.02.011-.02Z"/><path class="cls-15" d="M34.186,21.8c.187.1.375.2.562.308.059.032.115.068.161.095h-.988l-.055-.111Z"/><path class="cls-29" d="M40.832,30.175a.984.984,0,0,1,.418-.632A1.108,1.108,0,0,1,40.832,30.175Z"/><path class="cls-29" d="M41.478,29.083c-.068-.119-.08-.222.077-.279Z"/><path class="cls-29" d="M41.345,29.36c-.1-.124-.018-.161.089-.185Z"/><path class="cls-21" d="M40.681,26.5c-.15-.057-.258-.1-.368-.14a.848.848,0,0,1-.087-.021c-.12-.062-.238-.127-.354-.19.162-.085.34-.207.571-.029a1.267,1.267,0,0,0,.355.124Z"/><path class="cls-23" d="M39.317,27.284a.059.059,0,0,1,.007-.037.138.138,0,0,1,.008.027Z"/><path class="cls-30" d="M31.435,26.6a1.631,1.631,0,0,1-.923-.055h0l-.046-.029a2.835,2.835,0,0,1-.3-.25,1.2,1.2,0,0,1-.292-1.332c.013-.032-.006-.076-.01-.114.074-.052.143-.109.22-.153a2.136,2.136,0,0,1,1.815-.246,4.071,4.071,0,0,1,.336.455,1.088,1.088,0,0,1,.029,1.128A1.313,1.313,0,0,1,31.435,26.6Z"/><path class="cls-5" d="M31.9,24.424a2.136,2.136,0,0,0-1.815.246c-.077.044-.146.1-.22.153l-1.013.941c-.077,0-.153,0-.23,0a.761.761,0,0,1-.116-.028,2.046,2.046,0,0,1,.164-.434,3.534,3.534,0,0,1,.968-1.049A2.992,2.992,0,0,1,31.8,23.8a5.186,5.186,0,0,1,2.478,1.229c.119.094.231.2.373.315-.306.367-.6.735-.915,1.082-.073.079-.23.083-.348.121a.919.919,0,0,1,.018-.308,5.552,5.552,0,0,1,.318-.6.21.21,0,0,0-.073-.333A6.83,6.83,0,0,0,31.9,24.424Z"/><path class="cls-30" d="M21.985,26.137a1.466,1.466,0,0,1-1.042.082c-.026-.014-.051-.03-.078-.042a1.153,1.153,0,0,1-.628-1.491,1.38,1.38,0,0,1,.535-.709,1.5,1.5,0,0,1,.242-.053,1.762,1.762,0,0,1,1.524.685,4.292,4.292,0,0,1,.032.451,1.414,1.414,0,0,1-.49.993l-.034.034Z"/><path class="cls-5" d="M22.538,24.609a1.762,1.762,0,0,0-1.524-.685,1.5,1.5,0,0,0-.242.053,3.579,3.579,0,0,0-1.382.582c-.51.349-.427.186-.255.733.067.211.1.433.151.65-.173.129-.29.016-.366-.112-.219-.372-.42-.753-.631-1.136a4.425,4.425,0,0,1,2.209-1.3,2.628,2.628,0,0,1,2.311.6,3.2,3.2,0,0,1,.865,1.346c.08.2,0,.278-.26.286-.15-.2-.293-.4-.454-.593C22.831,24.882,22.679,24.75,22.538,24.609Z"/><path class="cls-11" d="M28.15,33.7c-.084.357-.208.441-.535.3a3,3,0,0,0-1.869-.185,1.121,1.121,0,0,1-.445-.069,2.147,2.147,0,0,0-1.349.113.775.775,0,0,1-.524.07.259.259,0,0,1-.217-.291c0-.047.167-.086.26-.119.112-.04.23-.062.34-.1a2.505,2.505,0,0,1,1.178-.3.633.633,0,0,1,.2.032,1.4,1.4,0,0,0,.894.048,2.243,2.243,0,0,1,.838.077,5.569,5.569,0,0,1,.652.265C27.762,33.6,27.958,33.649,28.15,33.7Z"/><path class="cls-2" d="M31.9,24.424a6.83,6.83,0,0,1,1.757.877.21.21,0,0,1,.073.333,5.552,5.552,0,0,0-.318.6.919.919,0,0,0-.018.308c-.392.034-.785.065-1.177.1-.2.019-.406.056-.61.065-.055,0-.113-.068-.169-.1a1.313,1.313,0,0,0,.827-.6,1.088,1.088,0,0,0-.029-1.128A4.071,4.071,0,0,0,31.9,24.424Z"/><path class="cls-2" d="M19.286,25.942c-.05-.217-.084-.439-.151-.65-.172-.547-.255-.384.255-.733a3.579,3.579,0,0,1,1.382-.582,1.38,1.38,0,0,0-.535.709,1.153,1.153,0,0,0,.628,1.491c.027.012.052.028.078.042a.432.432,0,0,1-.43.077,5.548,5.548,0,0,0-.98-.2A.3.3,0,0,1,19.286,25.942Z"/><path class="cls-2" d="M28.849,25.764l1.013-.941c0,.038.023.082.01.114a1.2,1.2,0,0,0,.292,1.332,2.835,2.835,0,0,0,.3.25l.046.029h0c-.089.03-.191.1-.267.082-.3-.077-.579-.2-.874-.277A.725.725,0,0,1,28.849,25.764Z"/><path class="cls-2" d="M22.538,24.609c.141.141.293.273.422.424.161.19.3.395.454.593a1.643,1.643,0,0,1-.342.353,3.077,3.077,0,0,1-.592.2.663.663,0,0,1-.242.052,1.051,1.051,0,0,1-.253-.094l.061-.05.034-.034a1.414,1.414,0,0,0,.49-.993A4.292,4.292,0,0,0,22.538,24.609Z"/><path class="cls-11" d="M26.658,29.588a1.254,1.254,0,0,1-1.59.071c-.138-.1-.093-.193-.03-.289a.159.159,0,0,1,.261-.052.892.892,0,0,0,.983.047C26.537,29.227,26.535,29.488,26.658,29.588Z"/><path class="cls-23" d="M22.4,22.343l.041,0-.021,0Z"/><path class="cls-29" d="M39.039,29.13,38.9,29.5l-.131-.123Z"/><path class="cls-29" d="M38.855,29.682l-.048.23C38.689,29.82,38.7,29.778,38.855,29.682Z"/><path class="cls-27" d="M30.513,26.548l-.046-.029Z"/><path class="cls-27" d="M22.08,26.053l-.034.034Z"/></g></g></svg>