<svg width="56" height="56" viewBox="0 0 56 56" fill="none" xmlns="http://www.w3.org/2000/svg">
<path d="M47 16.5769C45.575 17.2923 44.15 17.5308 42.4875 17.7692C44.15 16.8154 45.3375 15.3846 45.8125 13.4769C44.3875 14.4308 42.725 14.9077 40.825 15.3846C39.4 13.9538 37.2625 13 35.125 13C30.1375 13 26.3375 17.7692 27.525 22.5385C21.1125 22.3 15.4125 19.2 11.375 14.4308C9.2375 18.0077 10.425 22.5385 13.75 24.9231C12.5625 24.9231 11.375 24.4462 10.1875 23.9692C10.1875 27.5462 12.8 30.8846 16.3625 31.8385C15.175 32.0769 13.9875 32.3154 12.8 32.0769C13.75 35.1769 16.6 37.5615 20.1625 37.5615C17.3125 39.7077 13.0375 40.9 9 40.4231C12.5625 42.5692 16.6 44 20.875 44C35.3625 44 43.4375 31.8385 42.9625 20.6308C44.625 19.6769 46.05 18.2462 47 16.5769Z" fill="#1DA1F2"/>
</svg>
