<svg id="text_logo" data-name="text logo" xmlns="http://www.w3.org/2000/svg" viewBox="0 0 511.8 50.38"><defs><style>.cls-1{fill:#333;}</style></defs><path class="cls-1" d="M15.94,17.4V51.61H1.67v-48H20.26q12.24,0,19.16,5.55,8.23,6.65,8.23,18,0,10.89-7,17.79T22.51,51.89c-.86,0-2.28,0-4.25-.14V37.65h2.29Q33,37.65,33,27.21q0-9.81-12.27-9.81Z" transform="translate(-1.67 -2.42)"/><path class="cls-1" d="M71.77,27.52V40.18H67.66V51.61H53.38V21.09q0-8.86,4.84-13.76T71.8,2.42q8.45,0,12.48,4.45t4,13.73v31H74.05V21.55a8.1,8.1,0,0,0-.66-3.9A2.58,2.58,0,0,0,71,16.56q-3.34,0-3.34,5v6Z" transform="translate(-1.67 -2.42)"/><path class="cls-1" d="M117.86,17.4V51.61H103.58V17.4H92.65V3.62h36.11V17.4Z" transform="translate(-1.67 -2.42)"/><path class="cls-1" d="M156.57,3.41V17.08a8.12,8.12,0,0,0-2.4-.52,3.71,3.71,0,0,0-2.77,1.19,4,4,0,0,0-1.16,2.88,7.9,7.9,0,0,0,1.26,3.66l1.09,1.9a19.88,19.88,0,0,1,3,9.91,15.9,15.9,0,0,1-5,11.85,16.76,16.76,0,0,1-12.15,4.85,16,16,0,0,1-6.82-1.58V37.33a7,7,0,0,0,3.63,1.3,4.59,4.59,0,0,0,3.11-1.07,3.39,3.39,0,0,0,1.24-2.69c0-.7-.66-2.24-2-4.6A22.61,22.61,0,0,1,134.38,19a16,16,0,0,1,4.84-11.69,15.64,15.64,0,0,1,11.54-4.91A17.6,17.6,0,0,1,156.57,3.41Z" transform="translate(-1.67 -2.42)"/><path class="cls-1" d="M197.52,3.62V34.73q0,8.24-4.9,13.15T179.56,52.8q-8.13,0-12.43-4.78t-4.31-13.75V3.62H177.1V34.24q0,4.4,3.13,4.39t3-4.39V3.62Z" transform="translate(-1.67 -2.42)"/><path class="cls-1" d="M220.48,3.62v48H206.21v-48Zm27.39,0L235.21,25.38,247.8,51.61h-16L220.9,25.1,233.21,3.62Z" transform="translate(-1.67 -2.42)"/><path class="cls-1" d="M270.05,27.52V40.18h-4.11V51.61H251.66V21.09q0-8.86,4.84-13.76t13.58-4.91q8.44,0,12.49,4.45t4,13.73v31H272.33V21.55a8.1,8.1,0,0,0-.66-3.9,2.58,2.58,0,0,0-2.39-1.09q-3.34,0-3.34,5v6Z" transform="translate(-1.67 -2.42)"/><path class="cls-1" d="M294.27,51.61V20.46q0-8.19,4.91-13.12t13.06-4.92q8.11,0,12.43,4.78T329,21V51.61H314.7V21q0-4.39-3.13-4.39c-2,0-3,1.46-3,4.39V51.61Z" transform="translate(-1.67 -2.42)"/><path class="cls-1" d="M355.66,3.62h17.43q15.51,0,15.51,12.2a12.13,12.13,0,0,1-5.31,10.05Q391,29.22,391,37.79a13.11,13.11,0,0,1-4.54,10.48,13,13,0,0,1-4.74,2.6,25.32,25.32,0,0,1-6.82.74h-2.71V39.27h2.42a6,6,0,0,0,3-.55,2.08,2.08,0,0,0,.88-1.91c0-1.55-1.2-2.32-3.59-2.32h-2.74V21.69c2.62,0,3.94-.9,3.94-2.71s-1.19-2.49-3.55-2.49h-2.64V51.61H355.66Z" transform="translate(-1.67 -2.42)"/><path class="cls-1" d="M395.77,3.62H410V32.13c0,2.23.36,3.71,1.07,4.45s2.13,1.1,4.24,1.1h.74V51.61h-3.8q-7.8,0-12.16-4.56t-4.36-12.63Z" transform="translate(-1.67 -2.42)"/><path class="cls-1" d="M443.65,2.42a23.67,23.67,0,0,1,17.49,7.42,24.45,24.45,0,0,1,7.3,17.75,24.29,24.29,0,0,1-7.35,17.86,25.29,25.29,0,0,1-35.68,0A24.26,24.26,0,0,1,418,27.59a24.06,24.06,0,0,1,7.44-17.85A25,25,0,0,1,443.65,2.42Zm-.42,14.14a10,10,0,0,0-7.49,3.23,10.9,10.9,0,0,0-3.09,7.8,10.84,10.84,0,0,0,3.11,7.81,10.32,10.32,0,0,0,15,0,10.91,10.91,0,0,0,3.07-7.83,10.9,10.9,0,0,0-3.07-7.82A10,10,0,0,0,443.23,16.56Z" transform="translate(-1.67 -2.42)"/><path class="cls-1" d="M495.47,24.71h13.61a18.07,18.07,0,0,1,4.39,11.5A15.48,15.48,0,0,1,508.32,48a17.91,17.91,0,0,1-12.67,4.78,21.7,21.7,0,0,1-16.6-7.42,25.73,25.73,0,0,1-6.82-18.07,24.44,24.44,0,0,1,6.95-17.79,23.28,23.28,0,0,1,17.35-7.1,25.14,25.14,0,0,1,7.87,1.44V18.14a14.59,14.59,0,0,0-6.15-1.58A11.23,11.23,0,0,0,490,19.68a10.92,10.92,0,0,0-3.18,8.13,11,11,0,0,0,2.95,8.08,10.73,10.73,0,0,0,8,3c2.13,0,3.2-.62,3.2-1.86,0-.94-.7-1.41-2.11-1.41h-3.41Z" transform="translate(-1.67 -2.42)"/></svg>